<svg width="88" height="117" viewBox="0 0 88 117" fill="none" xmlns="http://www.w3.org/2000/svg">
<path d="M23 60.3333H65" stroke="#404040" stroke-width="2.5" stroke-linecap="round"/>
<path d="M23 73.1667H65" stroke="#404040" stroke-width="2.5" stroke-linecap="round"/>
<path d="M23 86H65" stroke="#404040" stroke-width="2.5" stroke-linecap="round"/>
<path d="M53.3428 38.5593L54.591 38.627L53.3428 38.5593ZM43.51 47.4839L43.4465 48.7323L43.51 47.4839ZM34.6978 37.6095L35.9459 37.6772L34.6978 37.6095ZM44.467 29.9332C45.1564 29.9683 45.7438 29.4379 45.779 28.7484C45.8141 28.059 45.2836 27.4716 44.5942 27.4364L44.467 29.9332ZM48.758 34.4552L47.9403 33.5098C47.8981 33.5463 47.8583 33.5856 47.8213 33.6275L48.758 34.4552ZM43.4169 40.4997L42.458 41.3017C42.6917 41.5811 43.0357 41.7447 43.3999 41.7496C43.7641 41.7546 44.1124 41.6004 44.3536 41.3274L43.4169 40.4997ZM41.1338 35.8213C40.6909 35.2917 39.9026 35.2214 39.373 35.6643C38.8434 36.1072 38.7731 36.8956 39.216 37.4251L41.1338 35.8213ZM52.0947 38.4915C51.8497 43.0049 48.0247 46.4623 43.5736 46.2355L43.4465 48.7323C49.2928 49.0301 54.2724 44.4961 54.591 38.627L52.0947 38.4915ZM43.5736 46.2355C39.126 46.009 35.7011 42.1875 35.9459 37.6772L33.4496 37.5417C33.1308 43.414 37.5968 48.4343 43.4465 48.7323L43.5736 46.2355ZM35.9459 37.6772C36.191 33.1639 40.0159 29.7065 44.467 29.9332L44.5942 27.4364C38.7478 27.1386 33.7682 31.6726 33.4496 37.5417L35.9459 37.6772ZM49.5758 35.4006C50.3017 34.7727 50.6922 34.7468 50.8093 34.7587C50.9047 34.7683 51.0934 34.8313 51.342 35.2034C51.8771 36.004 52.1501 37.4712 52.0947 38.4915L54.591 38.627C54.6643 37.2767 54.3551 35.2127 53.4206 33.8143C52.9345 33.0869 52.1665 32.3835 51.0616 32.2714C49.9782 32.1615 48.9245 32.6585 47.9403 33.5098L49.5758 35.4006ZM47.8213 33.6275L42.4802 39.672L44.3536 41.3274L49.6947 35.2829L47.8213 33.6275ZM44.3758 39.6978L41.1338 35.8213L39.216 37.4251L42.458 41.3017L44.3758 39.6978Z" fill="#404040"/>
<path d="M87.25 100.818C87.25 100.127 86.6904 99.5678 86 99.5678C85.3096 99.5678 84.75 100.127 84.75 100.818H87.25ZM4.15385 2L4.16008 0.75H4.15385V2ZM86 28.0632H87.25C87.25 27.7327 87.1192 27.4157 86.8861 27.1815L86 28.0632ZM84.75 65.3517C84.75 66.042 85.3096 66.6017 86 66.6017C86.6904 66.6017 87.25 66.042 87.25 65.3517H84.75ZM60.3465 2.28039L61.2326 1.39873C60.9995 1.16449 60.6831 1.03206 60.3527 1.03041L60.3465 2.28039ZM83.8462 113.917H4.15385V116.417H83.8462V113.917ZM3.25 113.001V4.16587H0.75V113.001H3.25ZM84.75 100.818V113.001H87.25V100.818H84.75ZM62.5003 29.3132H86V26.8132H62.5003V29.3132ZM59.0965 2.28039V25.8973H61.5965V2.28039H59.0965ZM4.15385 113.917C3.66122 113.917 3.25 113.513 3.25 113.001H0.75C0.75 114.881 2.2674 116.417 4.15385 116.417V113.917ZM83.8462 116.417C85.7326 116.417 87.25 114.881 87.25 113.001H84.75C84.75 113.513 84.3388 113.917 83.8462 113.917V116.417ZM62.5003 26.8132C62.0077 26.8132 61.5965 26.4097 61.5965 25.8973H59.0965C59.0965 27.7772 60.6139 29.3132 62.5003 29.3132V26.8132ZM3.25 4.16587C3.25 3.65348 3.66122 3.25 4.15385 3.25V0.75C2.2674 0.75 0.75 2.28591 0.75 4.16587H3.25ZM59.4604 3.16205L85.1139 28.9448L86.8861 27.1815L61.2326 1.39873L59.4604 3.16205ZM4.14761 3.24998L60.3402 3.53038L60.3527 1.03041L4.16008 0.750016L4.14761 3.24998ZM84.75 28.0632V65.3517H87.25V28.0632H84.75Z" fill="url(#paint0_linear)"/>
<defs>
<linearGradient id="paint0_linear" x1="2" y1="58.5833" x2="86" y2="58.5833" gradientUnits="userSpaceOnUse">
<stop stop-color="#6B32CA"/>
<stop offset="1" stop-color="#FF3A65"/>
</linearGradient>
</defs>
</svg>
