<svg width="51" height="37" viewBox="0 0 51 37" fill="none" xmlns="http://www.w3.org/2000/svg">
<path d="M11.6262 18.2939C12.1869 20.2493 12.9509 22.1415 13.9059 23.94C14.3421 24.7364 14.7782 25.5327 15.5703 26.0344C15.7075 26.12 15.8587 26.1811 16.0171 26.2149C17.1838 26.4618 17.8233 25.5301 18.2354 24.678C18.8503 23.3411 19.3471 21.9538 19.7204 20.5317C19.7927 20.2662 19.8622 20.0008 19.9318 19.7353C20.0656 19.2283 20.1993 18.716 20.3144 18.2037L25.4626 4.55957C26.532 3.14663 27.9183 2.00011 29.5118 1.21086C31.1052 0.4216 32.8621 0.0112858 34.6431 0.0124192C37.2078 -0.00324463 39.7013 0.848801 41.7124 2.42801C45.0786 4.95509 47.0827 9.93227 47.0827 9.93227C47.3749 10.5803 47.5253 11.2823 47.5242 11.9922C47.5229 12.6496 47.391 13.3003 47.136 13.9072C46.8812 14.5141 46.5082 15.0652 46.0386 15.5291C45.569 15.993 45.0119 16.3606 44.3992 16.6109C43.7864 16.8612 43.1298 16.9893 42.467 16.9879C41.7301 16.9874 41.002 16.8262 40.335 16.5157C39.6676 16.2051 39.0774 15.7528 38.6059 15.1908L38.5577 15.1324C38.2342 14.6991 37.9645 14.2285 37.755 13.7308C37.4775 13.1062 37.1666 12.4966 36.8238 11.9046C36.6419 11.5993 36.4385 11.3099 36.2298 11.0233C36.0495 10.767 35.8362 10.535 35.5956 10.3331C35.122 9.9535 34.5253 9.8022 33.9688 10.1287C33.942 10.144 33.9161 10.1608 33.8912 10.1791C33.3186 10.5693 32.9172 11.3577 32.6389 11.963C31.8362 13.6778 31.376 15.435 30.9211 17.2401C30.8355 17.5878 30.7498 17.9356 30.6696 18.286L28.5423 25.1877L25.5428 31.7495C24.469 33.1243 23.0947 34.2395 21.5235 35.0111C19.9523 35.7825 18.2251 36.1905 16.472 36.2038C9.18589 36.3577 5.7288 29.833 5.7288 29.833C1.5787 23.08 0.355877 14.1715 0.0642181 11.3232C0.00267555 10.7313 3.48638e-07 10.3782 3.48638e-07 10.3782C-0.000337574 9.48607 0.244983 8.61075 0.709477 7.84681C1.17397 7.08285 1.83999 6.45928 2.63563 6.04343C3.45831 5.62989 4.37379 5.43162 5.29535 5.4674C6.15272 5.50297 6.98692 5.75417 7.7196 6.19739C8.28892 6.53544 8.78102 6.98747 9.16448 7.52464C9.84948 8.49087 10.0047 9.69336 10.1411 10.8428C10.4245 13.3634 10.9213 15.856 11.6262 18.2939Z" fill="url(#paint0_linear)"/>
<path d="M11.6262 18.2939C12.1869 20.2493 12.9509 22.1415 13.9059 23.94C14.3421 24.7364 14.7782 25.5327 15.5703 26.0344C15.7075 26.12 15.8587 26.1811 16.0171 26.2149C17.1838 26.4618 17.8233 25.5301 18.2354 24.678C18.8503 23.3411 19.3471 21.9538 19.7204 20.5317C19.7927 20.2662 19.8622 20.0008 19.9318 19.7353C20.0656 19.2283 20.1993 18.716 20.3144 18.2037L25.4626 4.55957C26.532 3.14663 27.9183 2.00011 29.5118 1.21086C31.1052 0.4216 32.8621 0.0112858 34.6431 0.0124192C37.2078 -0.00324463 39.7013 0.848801 41.7124 2.42801C45.0786 4.95509 47.0827 9.93227 47.0827 9.93227C47.3749 10.5803 47.5253 11.2823 47.5242 11.9922C47.5229 12.6496 47.391 13.3003 47.136 13.9072C46.8812 14.5141 46.5082 15.0652 46.0386 15.5291C45.569 15.993 45.0119 16.3606 44.3992 16.6109C43.7864 16.8612 43.1298 16.9893 42.467 16.9879C41.7301 16.9874 41.002 16.8262 40.335 16.5157C39.6676 16.2051 39.0774 15.7528 38.6059 15.1908L38.5577 15.1324C38.2342 14.6991 37.9645 14.2285 37.755 13.7308C37.4775 13.1062 37.1666 12.4966 36.8238 11.9046C36.6419 11.5993 36.4385 11.3099 36.2298 11.0233C36.0495 10.767 35.8362 10.535 35.5956 10.3331C35.122 9.9535 34.5253 9.8022 33.9688 10.1287C33.942 10.144 33.9161 10.1608 33.8912 10.1791C33.3186 10.5693 32.9172 11.3577 32.6389 11.963C31.8362 13.6778 31.376 15.435 30.9211 17.2401C30.8355 17.5878 30.7498 17.9356 30.6696 18.286L28.5423 25.1877L25.5428 31.7495C24.469 33.1243 23.0947 34.2395 21.5235 35.0111C19.9523 35.7825 18.2251 36.1905 16.472 36.2038C9.18589 36.3577 5.7288 29.833 5.7288 29.833C1.5787 23.08 0.355877 14.1715 0.0642181 11.3232C0.00267555 10.7313 3.48638e-07 10.3782 3.48638e-07 10.3782C-0.000337574 9.48607 0.244983 8.61075 0.709477 7.84681C1.17397 7.08285 1.83999 6.45928 2.63563 6.04343C3.45831 5.62989 4.37379 5.43162 5.29535 5.4674C6.15272 5.50297 6.98692 5.75417 7.7196 6.19739C8.28892 6.53544 8.78102 6.98747 9.16448 7.52464C9.84948 8.49087 10.0047 9.69336 10.1411 10.8428C10.4245 13.3634 10.9213 15.856 11.6262 18.2939Z" fill="url(#paint1_radial)"/>
<path d="M11.6262 18.2939C12.1869 20.2493 12.9509 22.1415 13.9059 23.94C14.3421 24.7364 14.7782 25.5327 15.5703 26.0344C15.7075 26.12 15.8587 26.1811 16.0171 26.2149C17.1838 26.4618 17.8233 25.5301 18.2354 24.678C18.8503 23.3411 19.3471 21.9538 19.7204 20.5317C19.7927 20.2662 19.8622 20.0008 19.9318 19.7353C20.0656 19.2283 20.1993 18.716 20.3144 18.2037L25.4626 4.55957C26.532 3.14663 27.9183 2.00011 29.5118 1.21086C31.1052 0.4216 32.8621 0.0112858 34.6431 0.0124192C37.2078 -0.00324463 39.7013 0.848801 41.7124 2.42801C45.0786 4.95509 47.0827 9.93227 47.0827 9.93227C47.3749 10.5803 47.5253 11.2823 47.5242 11.9922C47.5229 12.6496 47.391 13.3003 47.136 13.9072C46.8812 14.5141 46.5082 15.0652 46.0386 15.5291C45.569 15.993 45.0119 16.3606 44.3992 16.6109C43.7864 16.8612 43.1298 16.9893 42.467 16.9879C41.7301 16.9874 41.002 16.8262 40.335 16.5157C39.6676 16.2051 39.0774 15.7528 38.6059 15.1908L38.5577 15.1324C38.2342 14.6991 37.9645 14.2285 37.755 13.7308C37.4775 13.1062 37.1666 12.4966 36.8238 11.9046C36.6419 11.5993 36.4385 11.3099 36.2298 11.0233C36.0495 10.767 35.8362 10.535 35.5956 10.3331C35.122 9.9535 34.5253 9.8022 33.9688 10.1287C33.942 10.144 33.9161 10.1608 33.8912 10.1791C33.3186 10.5693 32.9172 11.3577 32.6389 11.963C31.8362 13.6778 31.376 15.435 30.9211 17.2401C30.8355 17.5878 30.7498 17.9356 30.6696 18.286L28.5423 25.1877L25.5428 31.7495C24.469 33.1243 23.0947 34.2395 21.5235 35.0111C19.9523 35.7825 18.2251 36.1905 16.472 36.2038C9.18589 36.3577 5.7288 29.833 5.7288 29.833C1.5787 23.08 0.355877 14.1715 0.0642181 11.3232C0.00267555 10.7313 3.48638e-07 10.3782 3.48638e-07 10.3782C-0.000337574 9.48607 0.244983 8.61075 0.709477 7.84681C1.17397 7.08285 1.83999 6.45928 2.63563 6.04343C3.45831 5.62989 4.37379 5.43162 5.29535 5.4674C6.15272 5.50297 6.98692 5.75417 7.7196 6.19739C8.28892 6.53544 8.78102 6.98747 9.16448 7.52464C9.84948 8.49087 10.0047 9.69336 10.1411 10.8428C10.4245 13.3634 10.9213 15.856 11.6262 18.2939Z" fill="url(#paint2_radial)"/>
<path d="M11.6262 18.2939C12.1869 20.2493 12.9509 22.1415 13.9059 23.94C14.3421 24.7364 14.7782 25.5327 15.5703 26.0344C15.7075 26.12 15.8587 26.1811 16.0171 26.2149C17.1838 26.4618 17.8233 25.5301 18.2354 24.678C18.8503 23.3411 19.3471 21.9538 19.7204 20.5317C19.7927 20.2662 19.8622 20.0008 19.9318 19.7353C20.0656 19.2283 20.1993 18.716 20.3144 18.2037L25.4626 4.55957C26.532 3.14663 27.9183 2.00011 29.5118 1.21086C31.1052 0.4216 32.8621 0.0112858 34.6431 0.0124192C37.2078 -0.00324463 39.7013 0.848801 41.7124 2.42801C45.0786 4.95509 47.0827 9.93227 47.0827 9.93227C47.3749 10.5803 47.5253 11.2823 47.5242 11.9922C47.5229 12.6496 47.391 13.3003 47.136 13.9072C46.8812 14.5141 46.5082 15.0652 46.0386 15.5291C45.569 15.993 45.0119 16.3606 44.3992 16.6109C43.7864 16.8612 43.1298 16.9893 42.467 16.9879C41.7301 16.9874 41.002 16.8262 40.335 16.5157C39.6676 16.2051 39.0774 15.7528 38.6059 15.1908L38.5577 15.1324C38.2342 14.6991 37.9645 14.2285 37.755 13.7308C37.4775 13.1062 37.1666 12.4966 36.8238 11.9046C36.6419 11.5993 36.4385 11.3099 36.2298 11.0233C36.0495 10.767 35.8362 10.535 35.5956 10.3331C35.122 9.9535 34.5253 9.8022 33.9688 10.1287C33.942 10.144 33.9161 10.1608 33.8912 10.1791C33.3186 10.5693 32.9172 11.3577 32.6389 11.963C31.8362 13.6778 31.376 15.435 30.9211 17.2401C30.8355 17.5878 30.7498 17.9356 30.6696 18.286L28.5423 25.1877L25.5428 31.7495C24.469 33.1243 23.0947 34.2395 21.5235 35.0111C19.9523 35.7825 18.2251 36.1905 16.472 36.2038C9.18589 36.3577 5.7288 29.833 5.7288 29.833C1.5787 23.08 0.355877 14.1715 0.0642181 11.3232C0.00267555 10.7313 3.48638e-07 10.3782 3.48638e-07 10.3782C-0.000337574 9.48607 0.244983 8.61075 0.709477 7.84681C1.17397 7.08285 1.83999 6.45928 2.63563 6.04343C3.45831 5.62989 4.37379 5.43162 5.29535 5.4674C6.15272 5.50297 6.98692 5.75417 7.7196 6.19739C8.28892 6.53544 8.78102 6.98747 9.16448 7.52464C9.84948 8.49087 10.0047 9.69336 10.1411 10.8428C10.4245 13.3634 10.9213 15.856 11.6262 18.2939Z" fill="url(#paint3_radial)"/>
<path d="M11.6262 18.2939C12.1869 20.2493 12.9509 22.1415 13.9059 23.94C14.3421 24.7364 14.7782 25.5327 15.5703 26.0344C15.7075 26.12 15.8587 26.1811 16.0171 26.2149C17.1838 26.4618 17.8233 25.5301 18.2354 24.678C18.8503 23.3411 19.3471 21.9538 19.7204 20.5317C19.7927 20.2662 19.8622 20.0008 19.9318 19.7353C20.0656 19.2283 20.1993 18.716 20.3144 18.2037L25.4626 4.55957C26.532 3.14663 27.9183 2.00011 29.5118 1.21086C31.1052 0.4216 32.8621 0.0112858 34.6431 0.0124192C37.2078 -0.00324463 39.7013 0.848801 41.7124 2.42801C45.0786 4.95509 47.0827 9.93227 47.0827 9.93227C47.3749 10.5803 47.5253 11.2823 47.5242 11.9922C47.5229 12.6496 47.391 13.3003 47.136 13.9072C46.8812 14.5141 46.5082 15.0652 46.0386 15.5291C45.569 15.993 45.0119 16.3606 44.3992 16.6109C43.7864 16.8612 43.1298 16.9893 42.467 16.9879C41.7301 16.9874 41.002 16.8262 40.335 16.5157C39.6676 16.2051 39.0774 15.7528 38.6059 15.1908L38.5577 15.1324C38.2342 14.6991 37.9645 14.2285 37.755 13.7308C37.4775 13.1062 37.1666 12.4966 36.8238 11.9046C36.6419 11.5993 36.4385 11.3099 36.2298 11.0233C36.0495 10.767 35.8362 10.535 35.5956 10.3331C35.122 9.9535 34.5253 9.8022 33.9688 10.1287C33.942 10.144 33.9161 10.1608 33.8912 10.1791C33.3186 10.5693 32.9172 11.3577 32.6389 11.963C31.8362 13.6778 31.376 15.435 30.9211 17.2401C30.8355 17.5878 30.7498 17.9356 30.6696 18.286L28.5423 25.1877L25.5428 31.7495C24.469 33.1243 23.0947 34.2395 21.5235 35.0111C19.9523 35.7825 18.2251 36.1905 16.472 36.2038C9.18589 36.3577 5.7288 29.833 5.7288 29.833C1.5787 23.08 0.355877 14.1715 0.0642181 11.3232C0.00267555 10.7313 3.48638e-07 10.3782 3.48638e-07 10.3782C-0.000337574 9.48607 0.244983 8.61075 0.709477 7.84681C1.17397 7.08285 1.83999 6.45928 2.63563 6.04343C3.45831 5.62989 4.37379 5.43162 5.29535 5.4674C6.15272 5.50297 6.98692 5.75417 7.7196 6.19739C8.28892 6.53544 8.78102 6.98747 9.16448 7.52464C9.84948 8.49087 10.0047 9.69336 10.1411 10.8428C10.4245 13.3634 10.9213 15.856 11.6262 18.2939Z" fill="url(#paint4_radial)"/>
<path d="M11.6262 18.2939C12.1869 20.2493 12.9509 22.1415 13.9059 23.94C14.3421 24.7364 14.7782 25.5327 15.5703 26.0344C15.7075 26.12 15.8587 26.1811 16.0171 26.2149C17.1838 26.4618 17.8233 25.5301 18.2354 24.678C18.8503 23.3411 19.3471 21.9538 19.7204 20.5317C19.7927 20.2662 19.8622 20.0008 19.9318 19.7353C20.0656 19.2283 20.1993 18.716 20.3144 18.2037L25.4626 4.55957C26.532 3.14663 27.9183 2.00011 29.5118 1.21086C31.1052 0.4216 32.8621 0.0112858 34.6431 0.0124192C37.2078 -0.00324463 39.7013 0.848801 41.7124 2.42801C45.0786 4.95509 47.0827 9.93227 47.0827 9.93227C47.3749 10.5803 47.5253 11.2823 47.5242 11.9922C47.5229 12.6496 47.391 13.3003 47.136 13.9072C46.8812 14.5141 46.5082 15.0652 46.0386 15.5291C45.569 15.993 45.0119 16.3606 44.3992 16.6109C43.7864 16.8612 43.1298 16.9893 42.467 16.9879C41.7301 16.9874 41.002 16.8262 40.335 16.5157C39.6676 16.2051 39.0774 15.7528 38.6059 15.1908L38.5577 15.1324C38.2342 14.6991 37.9645 14.2285 37.755 13.7308C37.4775 13.1062 37.1666 12.4966 36.8238 11.9046C36.6419 11.5993 36.4385 11.3099 36.2298 11.0233C36.0495 10.767 35.8362 10.535 35.5956 10.3331C35.122 9.9535 34.5253 9.8022 33.9688 10.1287C33.942 10.144 33.9161 10.1608 33.8912 10.1791C33.3186 10.5693 32.9172 11.3577 32.6389 11.963C31.8362 13.6778 31.376 15.435 30.9211 17.2401C30.8355 17.5878 30.7498 17.9356 30.6696 18.286L28.5423 25.1877L25.5428 31.7495C24.469 33.1243 23.0947 34.2395 21.5235 35.0111C19.9523 35.7825 18.2251 36.1905 16.472 36.2038C9.18589 36.3577 5.7288 29.833 5.7288 29.833C1.5787 23.08 0.355877 14.1715 0.0642181 11.3232C0.00267555 10.7313 3.48638e-07 10.3782 3.48638e-07 10.3782C-0.000337574 9.48607 0.244983 8.61075 0.709477 7.84681C1.17397 7.08285 1.83999 6.45928 2.63563 6.04343C3.45831 5.62989 4.37379 5.43162 5.29535 5.4674C6.15272 5.50297 6.98692 5.75417 7.7196 6.19739C8.28892 6.53544 8.78102 6.98747 9.16448 7.52464C9.84948 8.49087 10.0047 9.69336 10.1411 10.8428C10.4245 13.3634 10.9213 15.856 11.6262 18.2939Z" fill="url(#paint5_radial)"/>
<path d="M11.6262 18.2939C12.1869 20.2493 12.9509 22.1415 13.9059 23.94C14.3421 24.7364 14.7782 25.5327 15.5703 26.0344C15.7075 26.12 15.8587 26.1811 16.0171 26.2149C17.1838 26.4618 17.8233 25.5301 18.2354 24.678C18.8503 23.3411 19.3471 21.9538 19.7204 20.5317C19.7927 20.2662 19.8622 20.0008 19.9318 19.7353C20.0656 19.2283 20.1993 18.716 20.3144 18.2037L25.4626 4.55957C26.532 3.14663 27.9183 2.00011 29.5118 1.21086C31.1052 0.4216 32.8621 0.0112858 34.6431 0.0124192C37.2078 -0.00324463 39.7013 0.848801 41.7124 2.42801C45.0786 4.95509 47.0827 9.93227 47.0827 9.93227C47.3749 10.5803 47.5253 11.2823 47.5242 11.9922C47.5229 12.6496 47.391 13.3003 47.136 13.9072C46.8812 14.5141 46.5082 15.0652 46.0386 15.5291C45.569 15.993 45.0119 16.3606 44.3992 16.6109C43.7864 16.8612 43.1298 16.9893 42.467 16.9879C41.7301 16.9874 41.002 16.8262 40.335 16.5157C39.6676 16.2051 39.0774 15.7528 38.6059 15.1908L38.5577 15.1324C38.2342 14.6991 37.9645 14.2285 37.755 13.7308C37.4775 13.1062 37.1666 12.4966 36.8238 11.9046C36.6419 11.5993 36.4385 11.3099 36.2298 11.0233C36.0495 10.767 35.8362 10.535 35.5956 10.3331C35.122 9.9535 34.5253 9.8022 33.9688 10.1287C33.942 10.144 33.9161 10.1608 33.8912 10.1791C33.3186 10.5693 32.9172 11.3577 32.6389 11.963C31.8362 13.6778 31.376 15.435 30.9211 17.2401C30.8355 17.5878 30.7498 17.9356 30.6696 18.286L28.5423 25.1877L25.5428 31.7495C24.469 33.1243 23.0947 34.2395 21.5235 35.0111C19.9523 35.7825 18.2251 36.1905 16.472 36.2038C9.18589 36.3577 5.7288 29.833 5.7288 29.833C1.5787 23.08 0.355877 14.1715 0.0642181 11.3232C0.00267555 10.7313 3.48638e-07 10.3782 3.48638e-07 10.3782C-0.000337574 9.48607 0.244983 8.61075 0.709477 7.84681C1.17397 7.08285 1.83999 6.45928 2.63563 6.04343C3.45831 5.62989 4.37379 5.43162 5.29535 5.4674C6.15272 5.50297 6.98692 5.75417 7.7196 6.19739C8.28892 6.53544 8.78102 6.98747 9.16448 7.52464C9.84948 8.49087 10.0047 9.69336 10.1411 10.8428C10.4245 13.3634 10.9213 15.856 11.6262 18.2939Z" fill="url(#paint6_radial)"/>
<path d="M11.6262 18.2939C12.1869 20.2493 12.9509 22.1415 13.9059 23.94C14.3421 24.7364 14.7782 25.5327 15.5703 26.0344C15.7075 26.12 15.8587 26.1811 16.0171 26.2149C17.1838 26.4618 17.8233 25.5301 18.2354 24.678C18.8503 23.3411 19.3471 21.9538 19.7204 20.5317C19.7927 20.2662 19.8622 20.0008 19.9318 19.7353C20.0656 19.2283 20.1993 18.716 20.3144 18.2037L25.4626 4.55957C26.532 3.14663 27.9183 2.00011 29.5118 1.21086C31.1052 0.4216 32.8621 0.0112858 34.6431 0.0124192C37.2078 -0.00324463 39.7013 0.848801 41.7124 2.42801C45.0786 4.95509 47.0827 9.93227 47.0827 9.93227C47.3749 10.5803 47.5253 11.2823 47.5242 11.9922C47.5229 12.6496 47.391 13.3003 47.136 13.9072C46.8812 14.5141 46.5082 15.0652 46.0386 15.5291C45.569 15.993 45.0119 16.3606 44.3992 16.6109C43.7864 16.8612 43.1298 16.9893 42.467 16.9879C41.7301 16.9874 41.002 16.8262 40.335 16.5157C39.6676 16.2051 39.0774 15.7528 38.6059 15.1908L38.5577 15.1324C38.2342 14.6991 37.9645 14.2285 37.755 13.7308C37.4775 13.1062 37.1666 12.4966 36.8238 11.9046C36.6419 11.5993 36.4385 11.3099 36.2298 11.0233C36.0495 10.767 35.8362 10.535 35.5956 10.3331C35.122 9.9535 34.5253 9.8022 33.9688 10.1287C33.942 10.144 33.9161 10.1608 33.8912 10.1791C33.3186 10.5693 32.9172 11.3577 32.6389 11.963C31.8362 13.6778 31.376 15.435 30.9211 17.2401C30.8355 17.5878 30.7498 17.9356 30.6696 18.286L28.5423 25.1877L25.5428 31.7495C24.469 33.1243 23.0947 34.2395 21.5235 35.0111C19.9523 35.7825 18.2251 36.1905 16.472 36.2038C9.18589 36.3577 5.7288 29.833 5.7288 29.833C1.5787 23.08 0.355877 14.1715 0.0642181 11.3232C0.00267555 10.7313 3.48638e-07 10.3782 3.48638e-07 10.3782C-0.000337574 9.48607 0.244983 8.61075 0.709477 7.84681C1.17397 7.08285 1.83999 6.45928 2.63563 6.04343C3.45831 5.62989 4.37379 5.43162 5.29535 5.4674C6.15272 5.50297 6.98692 5.75417 7.7196 6.19739C8.28892 6.53544 8.78102 6.98747 9.16448 7.52464C9.84948 8.49087 10.0047 9.69336 10.1411 10.8428C10.4245 13.3634 10.9213 15.856 11.6262 18.2939Z" fill="url(#paint7_radial)"/>
<path d="M11.6262 18.2939C12.1869 20.2493 12.9509 22.1415 13.9059 23.94C14.3421 24.7364 14.7782 25.5327 15.5703 26.0344C15.7075 26.12 15.8587 26.1811 16.0171 26.2149C17.1838 26.4618 17.8233 25.5301 18.2354 24.678C18.8503 23.3411 19.3471 21.9538 19.7204 20.5317C19.7927 20.2662 19.8622 20.0008 19.9318 19.7353C20.0656 19.2283 20.1993 18.716 20.3144 18.2037L25.4626 4.55957C26.532 3.14663 27.9183 2.00011 29.5118 1.21086C31.1052 0.4216 32.8621 0.0112858 34.6431 0.0124192C37.2078 -0.00324463 39.7013 0.848801 41.7124 2.42801C45.0786 4.95509 47.0827 9.93227 47.0827 9.93227C47.3749 10.5803 47.5253 11.2823 47.5242 11.9922C47.5229 12.6496 47.391 13.3003 47.136 13.9072C46.8812 14.5141 46.5082 15.0652 46.0386 15.5291C45.569 15.993 45.0119 16.3606 44.3992 16.6109C43.7864 16.8612 43.1298 16.9893 42.467 16.9879C41.7301 16.9874 41.002 16.8262 40.335 16.5157C39.6676 16.2051 39.0774 15.7528 38.6059 15.1908L38.5577 15.1324C38.2342 14.6991 37.9645 14.2285 37.755 13.7308C37.4775 13.1062 37.1666 12.4966 36.8238 11.9046C36.6419 11.5993 36.4385 11.3099 36.2298 11.0233C36.0495 10.767 35.8362 10.535 35.5956 10.3331C35.122 9.9535 34.5253 9.8022 33.9688 10.1287C33.942 10.144 33.9161 10.1608 33.8912 10.1791C33.3186 10.5693 32.9172 11.3577 32.6389 11.963C31.8362 13.6778 31.376 15.435 30.9211 17.2401C30.8355 17.5878 30.7498 17.9356 30.6696 18.286L28.5423 25.1877L25.5428 31.7495C24.469 33.1243 23.0947 34.2395 21.5235 35.0111C19.9523 35.7825 18.2251 36.1905 16.472 36.2038C9.18589 36.3577 5.7288 29.833 5.7288 29.833C1.5787 23.08 0.355877 14.1715 0.0642181 11.3232C0.00267555 10.7313 3.48638e-07 10.3782 3.48638e-07 10.3782C-0.000337574 9.48607 0.244983 8.61075 0.709477 7.84681C1.17397 7.08285 1.83999 6.45928 2.63563 6.04343C3.45831 5.62989 4.37379 5.43162 5.29535 5.4674C6.15272 5.50297 6.98692 5.75417 7.7196 6.19739C8.28892 6.53544 8.78102 6.98747 9.16448 7.52464C9.84948 8.49087 10.0047 9.69336 10.1411 10.8428C10.4245 13.3634 10.9213 15.856 11.6262 18.2939Z" fill="url(#paint8_radial)"/>
<path d="M11.6262 18.2939C12.1869 20.2493 12.9509 22.1415 13.9059 23.94C14.3421 24.7364 14.7782 25.5327 15.5703 26.0344C15.7075 26.12 15.8587 26.1811 16.0171 26.2149C17.1838 26.4618 17.8233 25.5301 18.2354 24.678C18.8503 23.3411 19.3471 21.9538 19.7204 20.5317C19.7927 20.2662 19.8622 20.0008 19.9318 19.7353C20.0656 19.2283 20.1993 18.716 20.3144 18.2037L25.4626 4.55957C26.532 3.14663 27.9183 2.00011 29.5118 1.21086C31.1052 0.4216 32.8621 0.0112858 34.6431 0.0124192C37.2078 -0.00324463 39.7013 0.848801 41.7124 2.42801C45.0786 4.95509 47.0827 9.93227 47.0827 9.93227C47.3749 10.5803 47.5253 11.2823 47.5242 11.9922C47.5229 12.6496 47.391 13.3003 47.136 13.9072C46.8812 14.5141 46.5082 15.0652 46.0386 15.5291C45.569 15.993 45.0119 16.3606 44.3992 16.6109C43.7864 16.8612 43.1298 16.9893 42.467 16.9879C41.7301 16.9874 41.002 16.8262 40.335 16.5157C39.6676 16.2051 39.0774 15.7528 38.6059 15.1908L38.5577 15.1324C38.2342 14.6991 37.9645 14.2285 37.755 13.7308C37.4775 13.1062 37.1666 12.4966 36.8238 11.9046C36.6419 11.5993 36.4385 11.3099 36.2298 11.0233C36.0495 10.767 35.8362 10.535 35.5956 10.3331C35.122 9.9535 34.5253 9.8022 33.9688 10.1287C33.942 10.144 33.9161 10.1608 33.8912 10.1791C33.3186 10.5693 32.9172 11.3577 32.6389 11.963C31.8362 13.6778 31.376 15.435 30.9211 17.2401C30.8355 17.5878 30.7498 17.9356 30.6696 18.286L28.5423 25.1877L25.5428 31.7495C24.469 33.1243 23.0947 34.2395 21.5235 35.0111C19.9523 35.7825 18.2251 36.1905 16.472 36.2038C9.18589 36.3577 5.7288 29.833 5.7288 29.833C1.5787 23.08 0.355877 14.1715 0.0642181 11.3232C0.00267555 10.7313 3.48638e-07 10.3782 3.48638e-07 10.3782C-0.000337574 9.48607 0.244983 8.61075 0.709477 7.84681C1.17397 7.08285 1.83999 6.45928 2.63563 6.04343C3.45831 5.62989 4.37379 5.43162 5.29535 5.4674C6.15272 5.50297 6.98692 5.75417 7.7196 6.19739C8.28892 6.53544 8.78102 6.98747 9.16448 7.52464C9.84948 8.49087 10.0047 9.69336 10.1411 10.8428C10.4245 13.3634 10.9213 15.856 11.6262 18.2939Z" fill="url(#paint9_radial)"/>
<path d="M11.6262 18.2939C12.1869 20.2493 12.9509 22.1415 13.9059 23.94C14.3421 24.7364 14.7782 25.5327 15.5703 26.0344C15.7075 26.12 15.8587 26.1811 16.0171 26.2149C17.1838 26.4618 17.8233 25.5301 18.2354 24.678C18.8503 23.3411 19.3471 21.9538 19.7204 20.5317C19.7927 20.2662 19.8622 20.0008 19.9318 19.7353C20.0656 19.2283 20.1993 18.716 20.3144 18.2037L25.4626 4.55957C26.532 3.14663 27.9183 2.00011 29.5118 1.21086C31.1052 0.4216 32.8621 0.0112858 34.6431 0.0124192C37.2078 -0.00324463 39.7013 0.848801 41.7124 2.42801C45.0786 4.95509 47.0827 9.93227 47.0827 9.93227C47.3749 10.5803 47.5253 11.2823 47.5242 11.9922C47.5229 12.6496 47.391 13.3003 47.136 13.9072C46.8812 14.5141 46.5082 15.0652 46.0386 15.5291C45.569 15.993 45.0119 16.3606 44.3992 16.6109C43.7864 16.8612 43.1298 16.9893 42.467 16.9879C41.7301 16.9874 41.002 16.8262 40.335 16.5157C39.6676 16.2051 39.0774 15.7528 38.6059 15.1908L38.5577 15.1324C38.2342 14.6991 37.9645 14.2285 37.755 13.7308C37.4775 13.1062 37.1666 12.4966 36.8238 11.9046C36.6419 11.5993 36.4385 11.3099 36.2298 11.0233C36.0495 10.767 35.8362 10.535 35.5956 10.3331C35.122 9.9535 34.5253 9.8022 33.9688 10.1287C33.942 10.144 33.9161 10.1608 33.8912 10.1791C33.3186 10.5693 32.9172 11.3577 32.6389 11.963C31.8362 13.6778 31.376 15.435 30.9211 17.2401C30.8355 17.5878 30.7498 17.9356 30.6696 18.286L28.5423 25.1877L25.5428 31.7495C24.469 33.1243 23.0947 34.2395 21.5235 35.0111C19.9523 35.7825 18.2251 36.1905 16.472 36.2038C9.18589 36.3577 5.7288 29.833 5.7288 29.833C1.5787 23.08 0.355877 14.1715 0.0642181 11.3232C0.00267555 10.7313 3.48638e-07 10.3782 3.48638e-07 10.3782C-0.000337574 9.48607 0.244983 8.61075 0.709477 7.84681C1.17397 7.08285 1.83999 6.45928 2.63563 6.04343C3.45831 5.62989 4.37379 5.43162 5.29535 5.4674C6.15272 5.50297 6.98692 5.75417 7.7196 6.19739C8.28892 6.53544 8.78102 6.98747 9.16448 7.52464C9.84948 8.49087 10.0047 9.69336 10.1411 10.8428C10.4245 13.3634 10.9213 15.856 11.6262 18.2939Z" fill="url(#paint10_radial)"/>
<path d="M11.6262 18.2939C12.1869 20.2493 12.9509 22.1415 13.9059 23.94C14.3421 24.7364 14.7782 25.5327 15.5703 26.0344C15.7075 26.12 15.8587 26.1811 16.0171 26.2149C17.1838 26.4618 17.8233 25.5301 18.2354 24.678C18.8503 23.3411 19.3471 21.9538 19.7204 20.5317C19.7927 20.2662 19.8622 20.0008 19.9318 19.7353C20.0656 19.2283 20.1993 18.716 20.3144 18.2037L25.4626 4.55957C26.532 3.14663 27.9183 2.00011 29.5118 1.21086C31.1052 0.4216 32.8621 0.0112858 34.6431 0.0124192C37.2078 -0.00324463 39.7013 0.848801 41.7124 2.42801C45.0786 4.95509 47.0827 9.93227 47.0827 9.93227C47.3749 10.5803 47.5253 11.2823 47.5242 11.9922C47.5229 12.6496 47.391 13.3003 47.136 13.9072C46.8812 14.5141 46.5082 15.0652 46.0386 15.5291C45.569 15.993 45.0119 16.3606 44.3992 16.6109C43.7864 16.8612 43.1298 16.9893 42.467 16.9879C41.7301 16.9874 41.002 16.8262 40.335 16.5157C39.6676 16.2051 39.0774 15.7528 38.6059 15.1908L38.5577 15.1324C38.2342 14.6991 37.9645 14.2285 37.755 13.7308C37.4775 13.1062 37.1666 12.4966 36.8238 11.9046C36.6419 11.5993 36.4385 11.3099 36.2298 11.0233C36.0495 10.767 35.8362 10.535 35.5956 10.3331C35.122 9.9535 34.5253 9.8022 33.9688 10.1287C33.942 10.144 33.9161 10.1608 33.8912 10.1791C33.3186 10.5693 32.9172 11.3577 32.6389 11.963C31.8362 13.6778 31.376 15.435 30.9211 17.2401C30.8355 17.5878 30.7498 17.9356 30.6696 18.286L28.5423 25.1877L25.5428 31.7495C24.469 33.1243 23.0947 34.2395 21.5235 35.0111C19.9523 35.7825 18.2251 36.1905 16.472 36.2038C9.18589 36.3577 5.7288 29.833 5.7288 29.833C1.5787 23.08 0.355877 14.1715 0.0642181 11.3232C0.00267555 10.7313 3.48638e-07 10.3782 3.48638e-07 10.3782C-0.000337574 9.48607 0.244983 8.61075 0.709477 7.84681C1.17397 7.08285 1.83999 6.45928 2.63563 6.04343C3.45831 5.62989 4.37379 5.43162 5.29535 5.4674C6.15272 5.50297 6.98692 5.75417 7.7196 6.19739C8.28892 6.53544 8.78102 6.98747 9.16448 7.52464C9.84948 8.49087 10.0047 9.69336 10.1411 10.8428C10.4245 13.3634 10.9213 15.856 11.6262 18.2939Z" fill="url(#paint11_radial)"/>
<path d="M11.6262 18.2939C12.1869 20.2493 12.9509 22.1415 13.9059 23.94C14.3421 24.7364 14.7782 25.5327 15.5703 26.0344C15.7075 26.12 15.8587 26.1811 16.0171 26.2149C17.1838 26.4618 17.8233 25.5301 18.2354 24.678C18.8503 23.3411 19.3471 21.9538 19.7204 20.5317C19.7927 20.2662 19.8622 20.0008 19.9318 19.7353C20.0656 19.2283 20.1993 18.716 20.3144 18.2037L25.4626 4.55957C26.532 3.14663 27.9183 2.00011 29.5118 1.21086C31.1052 0.4216 32.8621 0.0112858 34.6431 0.0124192C37.2078 -0.00324463 39.7013 0.848801 41.7124 2.42801C45.0786 4.95509 47.0827 9.93227 47.0827 9.93227C47.3749 10.5803 47.5253 11.2823 47.5242 11.9922C47.5229 12.6496 47.391 13.3003 47.136 13.9072C46.8812 14.5141 46.5082 15.0652 46.0386 15.5291C45.569 15.993 45.0119 16.3606 44.3992 16.6109C43.7864 16.8612 43.1298 16.9893 42.467 16.9879C41.7301 16.9874 41.002 16.8262 40.335 16.5157C39.6676 16.2051 39.0774 15.7528 38.6059 15.1908L38.5577 15.1324C38.2342 14.6991 37.9645 14.2285 37.755 13.7308C37.4775 13.1062 37.1666 12.4966 36.8238 11.9046C36.6419 11.5993 36.4385 11.3099 36.2298 11.0233C36.0495 10.767 35.8362 10.535 35.5956 10.3331C35.122 9.9535 34.5253 9.8022 33.9688 10.1287C33.942 10.144 33.9161 10.1608 33.8912 10.1791C33.3186 10.5693 32.9172 11.3577 32.6389 11.963C31.8362 13.6778 31.376 15.435 30.9211 17.2401C30.8355 17.5878 30.7498 17.9356 30.6696 18.286L28.5423 25.1877L25.5428 31.7495C24.469 33.1243 23.0947 34.2395 21.5235 35.0111C19.9523 35.7825 18.2251 36.1905 16.472 36.2038C9.18589 36.3577 5.7288 29.833 5.7288 29.833C1.5787 23.08 0.355877 14.1715 0.0642181 11.3232C0.00267555 10.7313 3.48638e-07 10.3782 3.48638e-07 10.3782C-0.000337574 9.48607 0.244983 8.61075 0.709477 7.84681C1.17397 7.08285 1.83999 6.45928 2.63563 6.04343C3.45831 5.62989 4.37379 5.43162 5.29535 5.4674C6.15272 5.50297 6.98692 5.75417 7.7196 6.19739C8.28892 6.53544 8.78102 6.98747 9.16448 7.52464C9.84948 8.49087 10.0047 9.69336 10.1411 10.8428C10.4245 13.3634 10.9213 15.856 11.6262 18.2939Z" fill="url(#paint12_radial)"/>
<path d="M11.6262 18.2939C12.1869 20.2493 12.9509 22.1415 13.9059 23.94C14.3421 24.7364 14.7782 25.5327 15.5703 26.0344C15.7075 26.12 15.8587 26.1811 16.0171 26.2149C17.1838 26.4618 17.8233 25.5301 18.2354 24.678C18.8503 23.3411 19.3471 21.9538 19.7204 20.5317C19.7927 20.2662 19.8622 20.0008 19.9318 19.7353C20.0656 19.2283 20.1993 18.716 20.3144 18.2037L25.4626 4.55957C26.532 3.14663 27.9183 2.00011 29.5118 1.21086C31.1052 0.4216 32.8621 0.0112858 34.6431 0.0124192C37.2078 -0.00324463 39.7013 0.848801 41.7124 2.42801C45.0786 4.95509 47.0827 9.93227 47.0827 9.93227C47.3749 10.5803 47.5253 11.2823 47.5242 11.9922C47.5229 12.6496 47.391 13.3003 47.136 13.9072C46.8812 14.5141 46.5082 15.0652 46.0386 15.5291C45.569 15.993 45.0119 16.3606 44.3992 16.6109C43.7864 16.8612 43.1298 16.9893 42.467 16.9879C41.7301 16.9874 41.002 16.8262 40.335 16.5157C39.6676 16.2051 39.0774 15.7528 38.6059 15.1908L38.5577 15.1324C38.2342 14.6991 37.9645 14.2285 37.755 13.7308C37.4775 13.1062 37.1666 12.4966 36.8238 11.9046C36.6419 11.5993 36.4385 11.3099 36.2298 11.0233C36.0495 10.767 35.8362 10.535 35.5956 10.3331C35.122 9.9535 34.5253 9.8022 33.9688 10.1287C33.942 10.144 33.9161 10.1608 33.8912 10.1791C33.3186 10.5693 32.9172 11.3577 32.6389 11.963C31.8362 13.6778 31.376 15.435 30.9211 17.2401C30.8355 17.5878 30.7498 17.9356 30.6696 18.286L28.5423 25.1877L25.5428 31.7495C24.469 33.1243 23.0947 34.2395 21.5235 35.0111C19.9523 35.7825 18.2251 36.1905 16.472 36.2038C9.18589 36.3577 5.7288 29.833 5.7288 29.833C1.5787 23.08 0.355877 14.1715 0.0642181 11.3232C0.00267555 10.7313 3.48638e-07 10.3782 3.48638e-07 10.3782C-0.000337574 9.48607 0.244983 8.61075 0.709477 7.84681C1.17397 7.08285 1.83999 6.45928 2.63563 6.04343C3.45831 5.62989 4.37379 5.43162 5.29535 5.4674C6.15272 5.50297 6.98692 5.75417 7.7196 6.19739C8.28892 6.53544 8.78102 6.98747 9.16448 7.52464C9.84948 8.49087 10.0047 9.69336 10.1411 10.8428C10.4245 13.3634 10.9213 15.856 11.6262 18.2939Z" fill="url(#paint13_radial)"/>
<path d="M11.6262 18.2939C12.1869 20.2493 12.9509 22.1415 13.9059 23.94C14.3421 24.7364 14.7782 25.5327 15.5703 26.0344C15.7075 26.12 15.8587 26.1811 16.0171 26.2149C17.1838 26.4618 17.8233 25.5301 18.2354 24.678C18.8503 23.3411 19.3471 21.9538 19.7204 20.5317C19.7927 20.2662 19.8622 20.0008 19.9318 19.7353C20.0656 19.2283 20.1993 18.716 20.3144 18.2037L25.4626 4.55957C26.532 3.14663 27.9183 2.00011 29.5118 1.21086C31.1052 0.4216 32.8621 0.0112858 34.6431 0.0124192C37.2078 -0.00324463 39.7013 0.848801 41.7124 2.42801C45.0786 4.95509 47.0827 9.93227 47.0827 9.93227C47.3749 10.5803 47.5253 11.2823 47.5242 11.9922C47.5229 12.6496 47.391 13.3003 47.136 13.9072C46.8812 14.5141 46.5082 15.0652 46.0386 15.5291C45.569 15.993 45.0119 16.3606 44.3992 16.6109C43.7864 16.8612 43.1298 16.9893 42.467 16.9879C41.7301 16.9874 41.002 16.8262 40.335 16.5157C39.6676 16.2051 39.0774 15.7528 38.6059 15.1908L38.5577 15.1324C38.2342 14.6991 37.9645 14.2285 37.755 13.7308C37.4775 13.1062 37.1666 12.4966 36.8238 11.9046C36.6419 11.5993 36.4385 11.3099 36.2298 11.0233C36.0495 10.767 35.8362 10.535 35.5956 10.3331C35.122 9.9535 34.5253 9.8022 33.9688 10.1287C33.942 10.144 33.9161 10.1608 33.8912 10.1791C33.3186 10.5693 32.9172 11.3577 32.6389 11.963C31.8362 13.6778 31.376 15.435 30.9211 17.2401C30.8355 17.5878 30.7498 17.9356 30.6696 18.286L28.5423 25.1877L25.5428 31.7495C24.469 33.1243 23.0947 34.2395 21.5235 35.0111C19.9523 35.7825 18.2251 36.1905 16.472 36.2038C9.18589 36.3577 5.7288 29.833 5.7288 29.833C1.5787 23.08 0.355877 14.1715 0.0642181 11.3232C0.00267555 10.7313 3.48638e-07 10.3782 3.48638e-07 10.3782C-0.000337574 9.48607 0.244983 8.61075 0.709477 7.84681C1.17397 7.08285 1.83999 6.45928 2.63563 6.04343C3.45831 5.62989 4.37379 5.43162 5.29535 5.4674C6.15272 5.50297 6.98692 5.75417 7.7196 6.19739C8.28892 6.53544 8.78102 6.98747 9.16448 7.52464C9.84948 8.49087 10.0047 9.69336 10.1411 10.8428C10.4245 13.3634 10.9213 15.856 11.6262 18.2939Z" fill="url(#paint14_radial)"/>
<path d="M11.6262 18.2939C12.1869 20.2493 12.9509 22.1415 13.9059 23.94C14.3421 24.7364 14.7782 25.5327 15.5703 26.0344C15.7075 26.12 15.8587 26.1811 16.0171 26.2149C17.1838 26.4618 17.8233 25.5301 18.2354 24.678C18.8503 23.3411 19.3471 21.9538 19.7204 20.5317C19.7927 20.2662 19.8622 20.0008 19.9318 19.7353C20.0656 19.2283 20.1993 18.716 20.3144 18.2037L25.4626 4.55957C26.532 3.14663 27.9183 2.00011 29.5118 1.21086C31.1052 0.4216 32.8621 0.0112858 34.6431 0.0124192C37.2078 -0.00324463 39.7013 0.848801 41.7124 2.42801C45.0786 4.95509 47.0827 9.93227 47.0827 9.93227C47.3749 10.5803 47.5253 11.2823 47.5242 11.9922C47.5229 12.6496 47.391 13.3003 47.136 13.9072C46.8812 14.5141 46.5082 15.0652 46.0386 15.5291C45.569 15.993 45.0119 16.3606 44.3992 16.6109C43.7864 16.8612 43.1298 16.9893 42.467 16.9879C41.7301 16.9874 41.002 16.8262 40.335 16.5157C39.6676 16.2051 39.0774 15.7528 38.6059 15.1908L38.5577 15.1324C38.2342 14.6991 37.9645 14.2285 37.755 13.7308C37.4775 13.1062 37.1666 12.4966 36.8238 11.9046C36.6419 11.5993 36.4385 11.3099 36.2298 11.0233C36.0495 10.767 35.8362 10.535 35.5956 10.3331C35.122 9.9535 34.5253 9.8022 33.9688 10.1287C33.942 10.144 33.9161 10.1608 33.8912 10.1791C33.3186 10.5693 32.9172 11.3577 32.6389 11.963C31.8362 13.6778 31.376 15.435 30.9211 17.2401C30.8355 17.5878 30.7498 17.9356 30.6696 18.286L28.5423 25.1877L25.5428 31.7495C24.469 33.1243 23.0947 34.2395 21.5235 35.0111C19.9523 35.7825 18.2251 36.1905 16.472 36.2038C9.18589 36.3577 5.7288 29.833 5.7288 29.833C1.5787 23.08 0.355877 14.1715 0.0642181 11.3232C0.00267555 10.7313 3.48638e-07 10.3782 3.48638e-07 10.3782C-0.000337574 9.48607 0.244983 8.61075 0.709477 7.84681C1.17397 7.08285 1.83999 6.45928 2.63563 6.04343C3.45831 5.62989 4.37379 5.43162 5.29535 5.4674C6.15272 5.50297 6.98692 5.75417 7.7196 6.19739C8.28892 6.53544 8.78102 6.98747 9.16448 7.52464C9.84948 8.49087 10.0047 9.69336 10.1411 10.8428C10.4245 13.3634 10.9213 15.856 11.6262 18.2939Z" fill="url(#paint15_radial)"/>
<path d="M11.6262 18.2939C12.1869 20.2493 12.9509 22.1415 13.9059 23.94C14.3421 24.7364 14.7782 25.5327 15.5703 26.0344C15.7075 26.12 15.8587 26.1811 16.0171 26.2149C17.1838 26.4618 17.8233 25.5301 18.2354 24.678C18.8503 23.3411 19.3471 21.9538 19.7204 20.5317C19.7927 20.2662 19.8622 20.0008 19.9318 19.7353C20.0656 19.2283 20.1993 18.716 20.3144 18.2037L25.4626 4.55957C26.532 3.14663 27.9183 2.00011 29.5118 1.21086C31.1052 0.4216 32.8621 0.0112858 34.6431 0.0124192C37.2078 -0.00324463 39.7013 0.848801 41.7124 2.42801C45.0786 4.95509 47.0827 9.93227 47.0827 9.93227C47.3749 10.5803 47.5253 11.2823 47.5242 11.9922C47.5229 12.6496 47.391 13.3003 47.136 13.9072C46.8812 14.5141 46.5082 15.0652 46.0386 15.5291C45.569 15.993 45.0119 16.3606 44.3992 16.6109C43.7864 16.8612 43.1298 16.9893 42.467 16.9879C41.7301 16.9874 41.002 16.8262 40.335 16.5157C39.6676 16.2051 39.0774 15.7528 38.6059 15.1908L38.5577 15.1324C38.2342 14.6991 37.9645 14.2285 37.755 13.7308C37.4775 13.1062 37.1666 12.4966 36.8238 11.9046C36.6419 11.5993 36.4385 11.3099 36.2298 11.0233C36.0495 10.767 35.8362 10.535 35.5956 10.3331C35.122 9.9535 34.5253 9.8022 33.9688 10.1287C33.942 10.144 33.9161 10.1608 33.8912 10.1791C33.3186 10.5693 32.9172 11.3577 32.6389 11.963C31.8362 13.6778 31.376 15.435 30.9211 17.2401C30.8355 17.5878 30.7498 17.9356 30.6696 18.286L28.5423 25.1877L25.5428 31.7495C24.469 33.1243 23.0947 34.2395 21.5235 35.0111C19.9523 35.7825 18.2251 36.1905 16.472 36.2038C9.18589 36.3577 5.7288 29.833 5.7288 29.833C1.5787 23.08 0.355877 14.1715 0.0642181 11.3232C0.00267555 10.7313 3.48638e-07 10.3782 3.48638e-07 10.3782C-0.000337574 9.48607 0.244983 8.61075 0.709477 7.84681C1.17397 7.08285 1.83999 6.45928 2.63563 6.04343C3.45831 5.62989 4.37379 5.43162 5.29535 5.4674C6.15272 5.50297 6.98692 5.75417 7.7196 6.19739C8.28892 6.53544 8.78102 6.98747 9.16448 7.52464C9.84948 8.49087 10.0047 9.69336 10.1411 10.8428C10.4245 13.3634 10.9213 15.856 11.6262 18.2939Z" fill="url(#paint16_linear)"/>
<path d="M11.6262 18.2939C12.1869 20.2493 12.9509 22.1415 13.9059 23.94C14.3421 24.7364 14.7782 25.5327 15.5703 26.0344C15.7075 26.12 15.8587 26.1811 16.0171 26.2149C17.1838 26.4618 17.8233 25.5301 18.2354 24.678C18.8503 23.3411 19.3471 21.9538 19.7204 20.5317C19.7927 20.2662 19.8622 20.0008 19.9318 19.7353C20.0656 19.2283 20.1993 18.716 20.3144 18.2037L25.4626 4.55957C26.532 3.14663 27.9183 2.00011 29.5118 1.21086C31.1052 0.4216 32.8621 0.0112858 34.6431 0.0124192C37.2078 -0.00324463 39.7013 0.848801 41.7124 2.42801C45.0786 4.95509 47.0827 9.93227 47.0827 9.93227C47.3749 10.5803 47.5253 11.2823 47.5242 11.9922C47.5229 12.6496 47.391 13.3003 47.136 13.9072C46.8812 14.5141 46.5082 15.0652 46.0386 15.5291C45.569 15.993 45.0119 16.3606 44.3992 16.6109C43.7864 16.8612 43.1298 16.9893 42.467 16.9879C41.7301 16.9874 41.002 16.8262 40.335 16.5157C39.6676 16.2051 39.0774 15.7528 38.6059 15.1908L38.5577 15.1324C38.2342 14.6991 37.9645 14.2285 37.755 13.7308C37.4775 13.1062 37.1666 12.4966 36.8238 11.9046C36.6419 11.5993 36.4385 11.3099 36.2298 11.0233C36.0495 10.767 35.8362 10.535 35.5956 10.3331C35.122 9.9535 34.5253 9.8022 33.9688 10.1287C33.942 10.144 33.9161 10.1608 33.8912 10.1791C33.3186 10.5693 32.9172 11.3577 32.6389 11.963C31.8362 13.6778 31.376 15.435 30.9211 17.2401C30.8355 17.5878 30.7498 17.9356 30.6696 18.286L28.5423 25.1877L25.5428 31.7495C24.469 33.1243 23.0947 34.2395 21.5235 35.0111C19.9523 35.7825 18.2251 36.1905 16.472 36.2038C9.18589 36.3577 5.7288 29.833 5.7288 29.833C1.5787 23.08 0.355877 14.1715 0.0642181 11.3232C0.00267555 10.7313 3.48638e-07 10.3782 3.48638e-07 10.3782C-0.000337574 9.48607 0.244983 8.61075 0.709477 7.84681C1.17397 7.08285 1.83999 6.45928 2.63563 6.04343C3.45831 5.62989 4.37379 5.43162 5.29535 5.4674C6.15272 5.50297 6.98692 5.75417 7.7196 6.19739C8.28892 6.53544 8.78102 6.98747 9.16448 7.52464C9.84948 8.49087 10.0047 9.69336 10.1411 10.8428C10.4245 13.3634 10.9213 15.856 11.6262 18.2939Z" fill="url(#paint17_linear)"/>
<path d="M11.6262 18.2939C12.1869 20.2493 12.9509 22.1415 13.9059 23.94C14.3421 24.7364 14.7782 25.5327 15.5703 26.0344C15.7075 26.12 15.8587 26.1811 16.0171 26.2149C17.1838 26.4618 17.8233 25.5301 18.2354 24.678C18.8503 23.3411 19.3471 21.9538 19.7204 20.5317C19.7927 20.2662 19.8622 20.0008 19.9318 19.7353C20.0656 19.2283 20.1993 18.716 20.3144 18.2037L25.4626 4.55957C26.532 3.14663 27.9183 2.00011 29.5118 1.21086C31.1052 0.4216 32.8621 0.0112858 34.6431 0.0124192C37.2078 -0.00324463 39.7013 0.848801 41.7124 2.42801C45.0786 4.95509 47.0827 9.93227 47.0827 9.93227C47.3749 10.5803 47.5253 11.2823 47.5242 11.9922C47.5229 12.6496 47.391 13.3003 47.136 13.9072C46.8812 14.5141 46.5082 15.0652 46.0386 15.5291C45.569 15.993 45.0119 16.3606 44.3992 16.6109C43.7864 16.8612 43.1298 16.9893 42.467 16.9879C41.7301 16.9874 41.002 16.8262 40.335 16.5157C39.6676 16.2051 39.0774 15.7528 38.6059 15.1908L38.5577 15.1324C38.2342 14.6991 37.9645 14.2285 37.755 13.7308C37.4775 13.1062 37.1666 12.4966 36.8238 11.9046C36.6419 11.5993 36.4385 11.3099 36.2298 11.0233C36.0495 10.767 35.8362 10.535 35.5956 10.3331C35.122 9.9535 34.5253 9.8022 33.9688 10.1287C33.942 10.144 33.9161 10.1608 33.8912 10.1791C33.3186 10.5693 32.9172 11.3577 32.6389 11.963C31.8362 13.6778 31.376 15.435 30.9211 17.2401C30.8355 17.5878 30.7498 17.9356 30.6696 18.286L28.5423 25.1877L25.5428 31.7495C24.469 33.1243 23.0947 34.2395 21.5235 35.0111C19.9523 35.7825 18.2251 36.1905 16.472 36.2038C9.18589 36.3577 5.7288 29.833 5.7288 29.833C1.5787 23.08 0.355877 14.1715 0.0642181 11.3232C0.00267555 10.7313 3.48638e-07 10.3782 3.48638e-07 10.3782C-0.000337574 9.48607 0.244983 8.61075 0.709477 7.84681C1.17397 7.08285 1.83999 6.45928 2.63563 6.04343C3.45831 5.62989 4.37379 5.43162 5.29535 5.4674C6.15272 5.50297 6.98692 5.75417 7.7196 6.19739C8.28892 6.53544 8.78102 6.98747 9.16448 7.52464C9.84948 8.49087 10.0047 9.69336 10.1411 10.8428C10.4245 13.3634 10.9213 15.856 11.6262 18.2939Z" fill="url(#paint18_linear)"/>
<path d="M11.6262 18.2939C12.1869 20.2493 12.9509 22.1415 13.9059 23.94C14.3421 24.7364 14.7782 25.5327 15.5703 26.0344C15.7075 26.12 15.8587 26.1811 16.0171 26.2149C17.1838 26.4618 17.8233 25.5301 18.2354 24.678C18.8503 23.3411 19.3471 21.9538 19.7204 20.5317C19.7927 20.2662 19.8622 20.0008 19.9318 19.7353C20.0656 19.2283 20.1993 18.716 20.3144 18.2037L25.4626 4.55957C26.532 3.14663 27.9183 2.00011 29.5118 1.21086C31.1052 0.4216 32.8621 0.0112858 34.6431 0.0124192C37.2078 -0.00324463 39.7013 0.848801 41.7124 2.42801C45.0786 4.95509 47.0827 9.93227 47.0827 9.93227C47.3749 10.5803 47.5253 11.2823 47.5242 11.9922C47.5229 12.6496 47.391 13.3003 47.136 13.9072C46.8812 14.5141 46.5082 15.0652 46.0386 15.5291C45.569 15.993 45.0119 16.3606 44.3992 16.6109C43.7864 16.8612 43.1298 16.9893 42.467 16.9879C41.7301 16.9874 41.002 16.8262 40.335 16.5157C39.6676 16.2051 39.0774 15.7528 38.6059 15.1908L38.5577 15.1324C38.2342 14.6991 37.9645 14.2285 37.755 13.7308C37.4775 13.1062 37.1666 12.4966 36.8238 11.9046C36.6419 11.5993 36.4385 11.3099 36.2298 11.0233C36.0495 10.767 35.8362 10.535 35.5956 10.3331C35.122 9.9535 34.5253 9.8022 33.9688 10.1287C33.942 10.144 33.9161 10.1608 33.8912 10.1791C33.3186 10.5693 32.9172 11.3577 32.6389 11.963C31.8362 13.6778 31.376 15.435 30.9211 17.2401C30.8355 17.5878 30.7498 17.9356 30.6696 18.286L28.5423 25.1877L25.5428 31.7495C24.469 33.1243 23.0947 34.2395 21.5235 35.0111C19.9523 35.7825 18.2251 36.1905 16.472 36.2038C9.18589 36.3577 5.7288 29.833 5.7288 29.833C1.5787 23.08 0.355877 14.1715 0.0642181 11.3232C0.00267555 10.7313 3.48638e-07 10.3782 3.48638e-07 10.3782C-0.000337574 9.48607 0.244983 8.61075 0.709477 7.84681C1.17397 7.08285 1.83999 6.45928 2.63563 6.04343C3.45831 5.62989 4.37379 5.43162 5.29535 5.4674C6.15272 5.50297 6.98692 5.75417 7.7196 6.19739C8.28892 6.53544 8.78102 6.98747 9.16448 7.52464C9.84948 8.49087 10.0047 9.69336 10.1411 10.8428C10.4245 13.3634 10.9213 15.856 11.6262 18.2939Z" fill="url(#paint19_linear)"/>
<path d="M22.19 13.2318L25.4625 4.56219C26.5319 3.14925 27.9183 2.00273 29.5118 1.21348C31.1052 0.424225 32.8621 0.0139103 34.6431 0.0150437C37.2078 -0.000620129 39.7014 0.851426 41.7125 2.43064C45.0786 4.95771 47.0827 9.93489 47.0827 9.93489C47.3749 10.5829 47.5253 11.2849 47.5242 11.9948C47.5229 12.6522 47.391 13.303 47.136 13.9098C46.881 14.5167 46.5082 15.0678 46.0386 15.5317C45.569 15.9956 45.0119 16.3632 44.3989 16.6135C43.7862 16.8638 43.1298 16.9919 42.467 16.9905C41.7301 16.9901 41.002 16.8288 40.335 16.5183C39.6676 16.2077 39.0774 15.7554 38.6059 15.1934L38.5577 15.135C38.234 14.7018 37.9645 14.2311 37.755 13.7335C37.4773 13.1088 37.1666 12.4992 36.8238 11.9072C36.6419 11.6019 36.4385 11.3126 36.2298 11.0259C36.0495 10.7696 35.8362 10.5376 35.5957 10.3357C35.122 9.95613 34.5253 9.80482 33.9688 10.1313C33.942 10.1466 33.9161 10.1634 33.8912 10.1818C33.3186 10.572 32.9172 11.3604 32.6389 11.9656C31.8362 13.6804 31.376 15.4377 30.9211 17.2427C30.8355 17.5905 30.7498 17.9382 30.6696 18.2886L28.5423 25.1903L22.19 13.2318Z" fill="url(#paint20_linear)"/>
<path d="M45.9642 5.48859C45.5391 5.48766 45.1158 5.54027 44.704 5.64521C45.6426 6.99072 46.4395 8.42813 47.0827 9.93487C47.3749 10.5829 47.5253 11.2849 47.5242 11.9948C47.5229 12.6522 47.391 13.3029 47.136 13.9098C46.881 14.5167 46.5082 15.0678 46.0386 15.5317C45.569 15.9956 45.0119 16.3632 44.3989 16.6135C43.7862 16.8638 43.1298 16.9919 42.467 16.9905C41.5712 16.9889 40.6919 16.7506 39.9197 16.3004L39.4006 18.2036C38.4587 21.328 37.7951 22.5358 37.7951 22.5358C37.4296 23.3828 36.9945 24.1987 36.4947 24.9752C36.1495 25.4823 35.708 25.9919 35.1033 26.1857C34.893 26.2584 34.6682 26.2802 34.4477 26.2494C34.2091 26.2207 33.9787 26.1439 33.7708 26.0238C33.3732 25.7271 33.0569 25.3366 32.8503 24.8876C32.5945 24.3893 32.3649 23.8781 32.1626 23.356C31.7158 22.2783 31.0254 19.6238 31.0254 19.6238L30.311 16.8445L29.5966 14.044L29.0882 12.2045C27.7503 7.4131 25.8987 5.05591 25.8987 5.05591C24.4433 2.99719 22.3814 1.4357 19.9959 0.585742C17.2292 -0.399076 14.326 0.155714 14.326 0.155714C9.77716 1.04232 7.3877 4.13745 6.33613 5.62662C6.81742 5.75131 7.27797 5.94442 7.70344 6.2C8.27279 6.53805 8.76489 6.99008 9.14836 7.52724C9.83335 8.49348 9.98855 9.69597 10.125 10.8454C10.4121 13.3365 10.9079 15.7995 11.6074 18.2089C13.1486 13.1388 14.9976 10.7763 14.9976 10.7763C15.2042 10.5217 15.4519 10.3028 15.7307 10.1286C15.8759 10.0403 16.0382 9.98329 16.207 9.96142C16.52 9.93158 16.8339 10.0073 17.0981 10.1764C17.1464 10.208 17.1921 10.2435 17.2345 10.2826C17.4762 10.4952 17.6837 10.7432 17.8499 11.0179C18.2349 11.7005 18.5684 12.4102 18.848 13.1415C19.426 14.7554 19.9183 16.7277 19.9183 16.7277L21.39 22.4827C22.4603 26.3954 23.3674 28.296 23.3674 28.296C25.6016 33.3714 29.0186 34.7995 29.0186 34.7995C30.6821 35.6822 32.5322 36.1624 34.4183 36.2011C36.2188 36.2497 38.0046 35.8682 39.6254 35.0889C41.4023 34.2219 42.9612 32.9711 44.1875 31.4283C45.0144 30.478 46.2318 28.1633 46.2318 28.1633C47.5743 25.5096 48.6282 22.7217 49.3758 19.8468C49.8535 18.0557 50.2366 16.2411 50.5238 14.4104C50.6682 13.5025 50.8047 12.5894 50.9144 11.6736C51.0511 10.8064 51.0239 9.92149 50.8341 9.0642C50.7943 8.91008 50.7453 8.7585 50.687 8.61028C50.257 7.53446 49.4596 6.64282 48.434 6.09116C47.6738 5.69025 46.825 5.48318 45.9642 5.48859Z" fill="url(#paint21_linear)"/>
<path d="M45.9642 5.48859C45.5391 5.48766 45.1158 5.54027 44.704 5.64521C45.6426 6.99072 46.4395 8.42813 47.0827 9.93487C47.3749 10.5829 47.5253 11.2849 47.5242 11.9948C47.5229 12.6522 47.391 13.3029 47.136 13.9098C46.881 14.5167 46.5082 15.0678 46.0386 15.5317C45.569 15.9956 45.0119 16.3632 44.3989 16.6135C43.7862 16.8638 43.1298 16.9919 42.467 16.9905C41.5712 16.9889 40.6919 16.7506 39.9197 16.3004L39.4006 18.2036C38.4587 21.328 37.7951 22.5358 37.7951 22.5358C37.4296 23.3828 36.9945 24.1987 36.4947 24.9752C36.1495 25.4823 35.708 25.9919 35.1033 26.1857C34.893 26.2584 34.6682 26.2802 34.4477 26.2494C34.2091 26.2207 33.9787 26.1439 33.7708 26.0238C33.3732 25.7271 33.0569 25.3366 32.8503 24.8876C32.5945 24.3893 32.3649 23.8781 32.1626 23.356C31.7158 22.2783 31.0254 19.6238 31.0254 19.6238L30.311 16.8445L29.5966 14.044L29.0882 12.2045C27.7503 7.4131 25.8987 5.05591 25.8987 5.05591C24.4433 2.99719 22.3814 1.4357 19.9959 0.585742C17.2292 -0.399076 14.326 0.155714 14.326 0.155714C9.77716 1.04232 7.3877 4.13745 6.33613 5.62662C6.81742 5.75131 7.27797 5.94442 7.70344 6.2C8.27279 6.53805 8.76489 6.99008 9.14836 7.52724C9.83335 8.49348 9.98855 9.69597 10.125 10.8454C10.4121 13.3365 10.9079 15.7995 11.6074 18.2089C13.1486 13.1388 14.9976 10.7763 14.9976 10.7763C15.2042 10.5217 15.4519 10.3028 15.7307 10.1286C15.8759 10.0403 16.0382 9.98329 16.207 9.96142C16.52 9.93158 16.8339 10.0073 17.0981 10.1764C17.1464 10.208 17.1921 10.2435 17.2345 10.2826C17.4762 10.4952 17.6837 10.7432 17.8499 11.0179C18.2349 11.7005 18.5684 12.4102 18.848 13.1415C19.426 14.7554 19.9183 16.7277 19.9183 16.7277L21.39 22.4827C22.4603 26.3954 23.3674 28.296 23.3674 28.296C25.6016 33.3714 29.0186 34.7995 29.0186 34.7995C30.6821 35.6822 32.5322 36.1624 34.4183 36.2011C36.2188 36.2497 38.0046 35.8682 39.6254 35.0889C41.4023 34.2219 42.9612 32.9711 44.1875 31.4283C45.0144 30.478 46.2318 28.1633 46.2318 28.1633C47.5743 25.5096 48.6282 22.7217 49.3758 19.8468C49.8535 18.0557 50.2366 16.2411 50.5238 14.4104C50.6682 13.5025 50.8047 12.5894 50.9144 11.6736C51.0511 10.8064 51.0239 9.92149 50.8341 9.0642C50.7943 8.91008 50.7453 8.7585 50.687 8.61028C50.257 7.53446 49.4596 6.64282 48.434 6.09116C47.6738 5.69025 46.825 5.48318 45.9642 5.48859Z" fill="url(#paint22_radial)"/>
<path d="M45.9642 5.48859C45.5391 5.48766 45.1158 5.54027 44.704 5.64521C45.6426 6.99072 46.4395 8.42813 47.0827 9.93487C47.3749 10.5829 47.5253 11.2849 47.5242 11.9948C47.5229 12.6522 47.391 13.3029 47.136 13.9098C46.881 14.5167 46.5082 15.0678 46.0386 15.5317C45.569 15.9956 45.0119 16.3632 44.3989 16.6135C43.7862 16.8638 43.1298 16.9919 42.467 16.9905C41.5712 16.9889 40.6919 16.7506 39.9197 16.3004L39.4006 18.2036C38.4587 21.328 37.7951 22.5358 37.7951 22.5358C37.4296 23.3828 36.9945 24.1987 36.4947 24.9752C36.1495 25.4823 35.708 25.9919 35.1033 26.1857C34.893 26.2584 34.6682 26.2802 34.4477 26.2494C34.2091 26.2207 33.9787 26.1439 33.7708 26.0238C33.3732 25.7271 33.0569 25.3366 32.8503 24.8876C32.5945 24.3893 32.3649 23.8781 32.1626 23.356C31.7158 22.2783 31.0254 19.6238 31.0254 19.6238L30.311 16.8445L29.5966 14.044L29.0882 12.2045C27.7503 7.4131 25.8987 5.05591 25.8987 5.05591C24.4433 2.99719 22.3814 1.4357 19.9959 0.585742C17.2292 -0.399076 14.326 0.155714 14.326 0.155714C9.77716 1.04232 7.3877 4.13745 6.33613 5.62662C6.81742 5.75131 7.27797 5.94442 7.70344 6.2C8.27279 6.53805 8.76489 6.99008 9.14836 7.52724C9.83335 8.49348 9.98855 9.69597 10.125 10.8454C10.4121 13.3365 10.9079 15.7995 11.6074 18.2089C13.1486 13.1388 14.9976 10.7763 14.9976 10.7763C15.2042 10.5217 15.4519 10.3028 15.7307 10.1286C15.8759 10.0403 16.0382 9.98329 16.207 9.96142C16.52 9.93158 16.8339 10.0073 17.0981 10.1764C17.1464 10.208 17.1921 10.2435 17.2345 10.2826C17.4762 10.4952 17.6837 10.7432 17.8499 11.0179C18.2349 11.7005 18.5684 12.4102 18.848 13.1415C19.426 14.7554 19.9183 16.7277 19.9183 16.7277L21.39 22.4827C22.4603 26.3954 23.3674 28.296 23.3674 28.296C25.6016 33.3714 29.0186 34.7995 29.0186 34.7995C30.6821 35.6822 32.5322 36.1624 34.4183 36.2011C36.2188 36.2497 38.0046 35.8682 39.6254 35.0889C41.4023 34.2219 42.9612 32.9711 44.1875 31.4283C45.0144 30.478 46.2318 28.1633 46.2318 28.1633C47.5743 25.5096 48.6282 22.7217 49.3758 19.8468C49.8535 18.0557 50.2366 16.2411 50.5238 14.4104C50.6682 13.5025 50.8047 12.5894 50.9144 11.6736C51.0511 10.8064 51.0239 9.92149 50.8341 9.0642C50.7943 8.91008 50.7453 8.7585 50.687 8.61028C50.257 7.53446 49.4596 6.64282 48.434 6.09116C47.6738 5.69025 46.825 5.48318 45.9642 5.48859Z" fill="url(#paint23_radial)"/>
<path d="M45.9642 5.48859C45.5391 5.48766 45.1158 5.54027 44.704 5.64521C45.6426 6.99072 46.4395 8.42813 47.0827 9.93487C47.3749 10.5829 47.5253 11.2849 47.5242 11.9948C47.5229 12.6522 47.391 13.3029 47.136 13.9098C46.881 14.5167 46.5082 15.0678 46.0386 15.5317C45.569 15.9956 45.0119 16.3632 44.3989 16.6135C43.7862 16.8638 43.1298 16.9919 42.467 16.9905C41.5712 16.9889 40.6919 16.7506 39.9197 16.3004L39.4006 18.2036C38.4587 21.328 37.7951 22.5358 37.7951 22.5358C37.4296 23.3828 36.9945 24.1987 36.4947 24.9752C36.1495 25.4823 35.708 25.9919 35.1033 26.1857C34.893 26.2584 34.6682 26.2802 34.4477 26.2494C34.2091 26.2207 33.9787 26.1439 33.7708 26.0238C33.3732 25.7271 33.0569 25.3366 32.8503 24.8876C32.5945 24.3893 32.3649 23.8781 32.1626 23.356C31.7158 22.2783 31.0254 19.6238 31.0254 19.6238L30.311 16.8445L29.5966 14.044L29.0882 12.2045C27.7503 7.4131 25.8987 5.05591 25.8987 5.05591C24.4433 2.99719 22.3814 1.4357 19.9959 0.585742C17.2292 -0.399076 14.326 0.155714 14.326 0.155714C9.77716 1.04232 7.3877 4.13745 6.33613 5.62662C6.81742 5.75131 7.27797 5.94442 7.70344 6.2C8.27279 6.53805 8.76489 6.99008 9.14836 7.52724C9.83335 8.49348 9.98855 9.69597 10.125 10.8454C10.4121 13.3365 10.9079 15.7995 11.6074 18.2089C13.1486 13.1388 14.9976 10.7763 14.9976 10.7763C15.2042 10.5217 15.4519 10.3028 15.7307 10.1286C15.8759 10.0403 16.0382 9.98329 16.207 9.96142C16.52 9.93158 16.8339 10.0073 17.0981 10.1764C17.1464 10.208 17.1921 10.2435 17.2345 10.2826C17.4762 10.4952 17.6837 10.7432 17.8499 11.0179C18.2349 11.7005 18.5684 12.4102 18.848 13.1415C19.426 14.7554 19.9183 16.7277 19.9183 16.7277L21.39 22.4827C22.4603 26.3954 23.3674 28.296 23.3674 28.296C25.6016 33.3714 29.0186 34.7995 29.0186 34.7995C30.6821 35.6822 32.5322 36.1624 34.4183 36.2011C36.2188 36.2497 38.0046 35.8682 39.6254 35.0889C41.4023 34.2219 42.9612 32.9711 44.1875 31.4283C45.0144 30.478 46.2318 28.1633 46.2318 28.1633C47.5743 25.5096 48.6282 22.7217 49.3758 19.8468C49.8535 18.0557 50.2366 16.2411 50.5238 14.4104C50.6682 13.5025 50.8047 12.5894 50.9144 11.6736C51.0511 10.8064 51.0239 9.92149 50.8341 9.0642C50.7943 8.91008 50.7453 8.7585 50.687 8.61028C50.257 7.53446 49.4596 6.64282 48.434 6.09116C47.6738 5.69025 46.825 5.48318 45.9642 5.48859Z" fill="url(#paint24_radial)"/>
<path d="M45.9642 5.48859C45.5391 5.48766 45.1158 5.54027 44.704 5.64521C45.6426 6.99072 46.4395 8.42813 47.0827 9.93487C47.3749 10.5829 47.5253 11.2849 47.5242 11.9948C47.5229 12.6522 47.391 13.3029 47.136 13.9098C46.881 14.5167 46.5082 15.0678 46.0386 15.5317C45.569 15.9956 45.0119 16.3632 44.3989 16.6135C43.7862 16.8638 43.1298 16.9919 42.467 16.9905C41.5712 16.9889 40.6919 16.7506 39.9197 16.3004L39.4006 18.2036C38.4587 21.328 37.7951 22.5358 37.7951 22.5358C37.4296 23.3828 36.9945 24.1987 36.4947 24.9752C36.1495 25.4823 35.708 25.9919 35.1033 26.1857C34.893 26.2584 34.6682 26.2802 34.4477 26.2494C34.2091 26.2207 33.9787 26.1439 33.7708 26.0238C33.3732 25.7271 33.0569 25.3366 32.8503 24.8876C32.5945 24.3893 32.3649 23.8781 32.1626 23.356C31.7158 22.2783 31.0254 19.6238 31.0254 19.6238L30.311 16.8445L29.5966 14.044L29.0882 12.2045C27.7503 7.4131 25.8987 5.05591 25.8987 5.05591C24.4433 2.99719 22.3814 1.4357 19.9959 0.585742C17.2292 -0.399076 14.326 0.155714 14.326 0.155714C9.77716 1.04232 7.3877 4.13745 6.33613 5.62662C6.81742 5.75131 7.27797 5.94442 7.70344 6.2C8.27279 6.53805 8.76489 6.99008 9.14836 7.52724C9.83335 8.49348 9.98855 9.69597 10.125 10.8454C10.4121 13.3365 10.9079 15.7995 11.6074 18.2089C13.1486 13.1388 14.9976 10.7763 14.9976 10.7763C15.2042 10.5217 15.4519 10.3028 15.7307 10.1286C15.8759 10.0403 16.0382 9.98329 16.207 9.96142C16.52 9.93158 16.8339 10.0073 17.0981 10.1764C17.1464 10.208 17.1921 10.2435 17.2345 10.2826C17.4762 10.4952 17.6837 10.7432 17.8499 11.0179C18.2349 11.7005 18.5684 12.4102 18.848 13.1415C19.426 14.7554 19.9183 16.7277 19.9183 16.7277L21.39 22.4827C22.4603 26.3954 23.3674 28.296 23.3674 28.296C25.6016 33.3714 29.0186 34.7995 29.0186 34.7995C30.6821 35.6822 32.5322 36.1624 34.4183 36.2011C36.2188 36.2497 38.0046 35.8682 39.6254 35.0889C41.4023 34.2219 42.9612 32.9711 44.1875 31.4283C45.0144 30.478 46.2318 28.1633 46.2318 28.1633C47.5743 25.5096 48.6282 22.7217 49.3758 19.8468C49.8535 18.0557 50.2366 16.2411 50.5238 14.4104C50.6682 13.5025 50.8047 12.5894 50.9144 11.6736C51.0511 10.8064 51.0239 9.92149 50.8341 9.0642C50.7943 8.91008 50.7453 8.7585 50.687 8.61028C50.257 7.53446 49.4596 6.64282 48.434 6.09116C47.6738 5.69025 46.825 5.48318 45.9642 5.48859Z" fill="url(#paint25_radial)"/>
<path d="M45.9642 5.48859C45.5391 5.48766 45.1158 5.54027 44.704 5.64521C45.6426 6.99072 46.4395 8.42813 47.0827 9.93487C47.3749 10.5829 47.5253 11.2849 47.5242 11.9948C47.5229 12.6522 47.391 13.3029 47.136 13.9098C46.881 14.5167 46.5082 15.0678 46.0386 15.5317C45.569 15.9956 45.0119 16.3632 44.3989 16.6135C43.7862 16.8638 43.1298 16.9919 42.467 16.9905C41.5712 16.9889 40.6919 16.7506 39.9197 16.3004L39.4006 18.2036C38.4587 21.328 37.7951 22.5358 37.7951 22.5358C37.4296 23.3828 36.9945 24.1987 36.4947 24.9752C36.1495 25.4823 35.708 25.9919 35.1033 26.1857C34.893 26.2584 34.6682 26.2802 34.4477 26.2494C34.2091 26.2207 33.9787 26.1439 33.7708 26.0238C33.3732 25.7271 33.0569 25.3366 32.8503 24.8876C32.5945 24.3893 32.3649 23.8781 32.1626 23.356C31.7158 22.2783 31.0254 19.6238 31.0254 19.6238L30.311 16.8445L29.5966 14.044L29.0882 12.2045C27.7503 7.4131 25.8987 5.05591 25.8987 5.05591C24.4433 2.99719 22.3814 1.4357 19.9959 0.585742C17.2292 -0.399076 14.326 0.155714 14.326 0.155714C9.77716 1.04232 7.3877 4.13745 6.33613 5.62662C6.81742 5.75131 7.27797 5.94442 7.70344 6.2C8.27279 6.53805 8.76489 6.99008 9.14836 7.52724C9.83335 8.49348 9.98855 9.69597 10.125 10.8454C10.4121 13.3365 10.9079 15.7995 11.6074 18.2089C13.1486 13.1388 14.9976 10.7763 14.9976 10.7763C15.2042 10.5217 15.4519 10.3028 15.7307 10.1286C15.8759 10.0403 16.0382 9.98329 16.207 9.96142C16.52 9.93158 16.8339 10.0073 17.0981 10.1764C17.1464 10.208 17.1921 10.2435 17.2345 10.2826C17.4762 10.4952 17.6837 10.7432 17.8499 11.0179C18.2349 11.7005 18.5684 12.4102 18.848 13.1415C19.426 14.7554 19.9183 16.7277 19.9183 16.7277L21.39 22.4827C22.4603 26.3954 23.3674 28.296 23.3674 28.296C25.6016 33.3714 29.0186 34.7995 29.0186 34.7995C30.6821 35.6822 32.5322 36.1624 34.4183 36.2011C36.2188 36.2497 38.0046 35.8682 39.6254 35.0889C41.4023 34.2219 42.9612 32.9711 44.1875 31.4283C45.0144 30.478 46.2318 28.1633 46.2318 28.1633C47.5743 25.5096 48.6282 22.7217 49.3758 19.8468C49.8535 18.0557 50.2366 16.2411 50.5238 14.4104C50.6682 13.5025 50.8047 12.5894 50.9144 11.6736C51.0511 10.8064 51.0239 9.92149 50.8341 9.0642C50.7943 8.91008 50.7453 8.7585 50.687 8.61028C50.257 7.53446 49.4596 6.64282 48.434 6.09116C47.6738 5.69025 46.825 5.48318 45.9642 5.48859Z" fill="url(#paint26_radial)"/>
<path d="M45.9642 5.48859C45.5391 5.48766 45.1158 5.54027 44.704 5.64521C45.6426 6.99072 46.4395 8.42813 47.0827 9.93487C47.3749 10.5829 47.5253 11.2849 47.5242 11.9948C47.5229 12.6522 47.391 13.3029 47.136 13.9098C46.881 14.5167 46.5082 15.0678 46.0386 15.5317C45.569 15.9956 45.0119 16.3632 44.3989 16.6135C43.7862 16.8638 43.1298 16.9919 42.467 16.9905C41.5712 16.9889 40.6919 16.7506 39.9197 16.3004L39.4006 18.2036C38.4587 21.328 37.7951 22.5358 37.7951 22.5358C37.4296 23.3828 36.9945 24.1987 36.4947 24.9752C36.1495 25.4823 35.708 25.9919 35.1033 26.1857C34.893 26.2584 34.6682 26.2802 34.4477 26.2494C34.2091 26.2207 33.9787 26.1439 33.7708 26.0238C33.3732 25.7271 33.0569 25.3366 32.8503 24.8876C32.5945 24.3893 32.3649 23.8781 32.1626 23.356C31.7158 22.2783 31.0254 19.6238 31.0254 19.6238L30.311 16.8445L29.5966 14.044L29.0882 12.2045C27.7503 7.4131 25.8987 5.05591 25.8987 5.05591C24.4433 2.99719 22.3814 1.4357 19.9959 0.585742C17.2292 -0.399076 14.326 0.155714 14.326 0.155714C9.77716 1.04232 7.3877 4.13745 6.33613 5.62662C6.81742 5.75131 7.27797 5.94442 7.70344 6.2C8.27279 6.53805 8.76489 6.99008 9.14836 7.52724C9.83335 8.49348 9.98855 9.69597 10.125 10.8454C10.4121 13.3365 10.9079 15.7995 11.6074 18.2089C13.1486 13.1388 14.9976 10.7763 14.9976 10.7763C15.2042 10.5217 15.4519 10.3028 15.7307 10.1286C15.8759 10.0403 16.0382 9.98329 16.207 9.96142C16.52 9.93158 16.8339 10.0073 17.0981 10.1764C17.1464 10.208 17.1921 10.2435 17.2345 10.2826C17.4762 10.4952 17.6837 10.7432 17.8499 11.0179C18.2349 11.7005 18.5684 12.4102 18.848 13.1415C19.426 14.7554 19.9183 16.7277 19.9183 16.7277L21.39 22.4827C22.4603 26.3954 23.3674 28.296 23.3674 28.296C25.6016 33.3714 29.0186 34.7995 29.0186 34.7995C30.6821 35.6822 32.5322 36.1624 34.4183 36.2011C36.2188 36.2497 38.0046 35.8682 39.6254 35.0889C41.4023 34.2219 42.9612 32.9711 44.1875 31.4283C45.0144 30.478 46.2318 28.1633 46.2318 28.1633C47.5743 25.5096 48.6282 22.7217 49.3758 19.8468C49.8535 18.0557 50.2366 16.2411 50.5238 14.4104C50.6682 13.5025 50.8047 12.5894 50.9144 11.6736C51.0511 10.8064 51.0239 9.92149 50.8341 9.0642C50.7943 8.91008 50.7453 8.7585 50.687 8.61028C50.257 7.53446 49.4596 6.64282 48.434 6.09116C47.6738 5.69025 46.825 5.48318 45.9642 5.48859Z" fill="url(#paint27_radial)"/>
<path d="M45.9642 5.48859C45.5391 5.48766 45.1158 5.54027 44.704 5.64521C45.6426 6.99072 46.4395 8.42813 47.0827 9.93487C47.3749 10.5829 47.5253 11.2849 47.5242 11.9948C47.5229 12.6522 47.391 13.3029 47.136 13.9098C46.881 14.5167 46.5082 15.0678 46.0386 15.5317C45.569 15.9956 45.0119 16.3632 44.3989 16.6135C43.7862 16.8638 43.1298 16.9919 42.467 16.9905C41.5712 16.9889 40.6919 16.7506 39.9197 16.3004L39.4006 18.2036C38.4587 21.328 37.7951 22.5358 37.7951 22.5358C37.4296 23.3828 36.9945 24.1987 36.4947 24.9752C36.1495 25.4823 35.708 25.9919 35.1033 26.1857C34.893 26.2584 34.6682 26.2802 34.4477 26.2494C34.2091 26.2207 33.9787 26.1439 33.7708 26.0238C33.3732 25.7271 33.0569 25.3366 32.8503 24.8876C32.5945 24.3893 32.3649 23.8781 32.1626 23.356C31.7158 22.2783 31.0254 19.6238 31.0254 19.6238L30.311 16.8445L29.5966 14.044L29.0882 12.2045C27.7503 7.4131 25.8987 5.05591 25.8987 5.05591C24.4433 2.99719 22.3814 1.4357 19.9959 0.585742C17.2292 -0.399076 14.326 0.155714 14.326 0.155714C9.77716 1.04232 7.3877 4.13745 6.33613 5.62662C6.81742 5.75131 7.27797 5.94442 7.70344 6.2C8.27279 6.53805 8.76489 6.99008 9.14836 7.52724C9.83335 8.49348 9.98855 9.69597 10.125 10.8454C10.4121 13.3365 10.9079 15.7995 11.6074 18.2089C13.1486 13.1388 14.9976 10.7763 14.9976 10.7763C15.2042 10.5217 15.4519 10.3028 15.7307 10.1286C15.8759 10.0403 16.0382 9.98329 16.207 9.96142C16.52 9.93158 16.8339 10.0073 17.0981 10.1764C17.1464 10.208 17.1921 10.2435 17.2345 10.2826C17.4762 10.4952 17.6837 10.7432 17.8499 11.0179C18.2349 11.7005 18.5684 12.4102 18.848 13.1415C19.426 14.7554 19.9183 16.7277 19.9183 16.7277L21.39 22.4827C22.4603 26.3954 23.3674 28.296 23.3674 28.296C25.6016 33.3714 29.0186 34.7995 29.0186 34.7995C30.6821 35.6822 32.5322 36.1624 34.4183 36.2011C36.2188 36.2497 38.0046 35.8682 39.6254 35.0889C41.4023 34.2219 42.9612 32.9711 44.1875 31.4283C45.0144 30.478 46.2318 28.1633 46.2318 28.1633C47.5743 25.5096 48.6282 22.7217 49.3758 19.8468C49.8535 18.0557 50.2366 16.2411 50.5238 14.4104C50.6682 13.5025 50.8047 12.5894 50.9144 11.6736C51.0511 10.8064 51.0239 9.92149 50.8341 9.0642C50.7943 8.91008 50.7453 8.7585 50.687 8.61028C50.257 7.53446 49.4596 6.64282 48.434 6.09116C47.6738 5.69025 46.825 5.48318 45.9642 5.48859Z" fill="url(#paint28_radial)"/>
<path d="M45.9642 5.48859C45.5391 5.48766 45.1158 5.54027 44.704 5.64521C45.6426 6.99072 46.4395 8.42813 47.0827 9.93487C47.3749 10.5829 47.5253 11.2849 47.5242 11.9948C47.5229 12.6522 47.391 13.3029 47.136 13.9098C46.881 14.5167 46.5082 15.0678 46.0386 15.5317C45.569 15.9956 45.0119 16.3632 44.3989 16.6135C43.7862 16.8638 43.1298 16.9919 42.467 16.9905C41.5712 16.9889 40.6919 16.7506 39.9197 16.3004L39.4006 18.2036C38.4587 21.328 37.7951 22.5358 37.7951 22.5358C37.4296 23.3828 36.9945 24.1987 36.4947 24.9752C36.1495 25.4823 35.708 25.9919 35.1033 26.1857C34.893 26.2584 34.6682 26.2802 34.4477 26.2494C34.2091 26.2207 33.9787 26.1439 33.7708 26.0238C33.3732 25.7271 33.0569 25.3366 32.8503 24.8876C32.5945 24.3893 32.3649 23.8781 32.1626 23.356C31.7158 22.2783 31.0254 19.6238 31.0254 19.6238L30.311 16.8445L29.5966 14.044L29.0882 12.2045C27.7503 7.4131 25.8987 5.05591 25.8987 5.05591C24.4433 2.99719 22.3814 1.4357 19.9959 0.585742C17.2292 -0.399076 14.326 0.155714 14.326 0.155714C9.77716 1.04232 7.3877 4.13745 6.33613 5.62662C6.81742 5.75131 7.27797 5.94442 7.70344 6.2C8.27279 6.53805 8.76489 6.99008 9.14836 7.52724C9.83335 8.49348 9.98855 9.69597 10.125 10.8454C10.4121 13.3365 10.9079 15.7995 11.6074 18.2089C13.1486 13.1388 14.9976 10.7763 14.9976 10.7763C15.2042 10.5217 15.4519 10.3028 15.7307 10.1286C15.8759 10.0403 16.0382 9.98329 16.207 9.96142C16.52 9.93158 16.8339 10.0073 17.0981 10.1764C17.1464 10.208 17.1921 10.2435 17.2345 10.2826C17.4762 10.4952 17.6837 10.7432 17.8499 11.0179C18.2349 11.7005 18.5684 12.4102 18.848 13.1415C19.426 14.7554 19.9183 16.7277 19.9183 16.7277L21.39 22.4827C22.4603 26.3954 23.3674 28.296 23.3674 28.296C25.6016 33.3714 29.0186 34.7995 29.0186 34.7995C30.6821 35.6822 32.5322 36.1624 34.4183 36.2011C36.2188 36.2497 38.0046 35.8682 39.6254 35.0889C41.4023 34.2219 42.9612 32.9711 44.1875 31.4283C45.0144 30.478 46.2318 28.1633 46.2318 28.1633C47.5743 25.5096 48.6282 22.7217 49.3758 19.8468C49.8535 18.0557 50.2366 16.2411 50.5238 14.4104C50.6682 13.5025 50.8047 12.5894 50.9144 11.6736C51.0511 10.8064 51.0239 9.92149 50.8341 9.0642C50.7943 8.91008 50.7453 8.7585 50.687 8.61028C50.257 7.53446 49.4596 6.64282 48.434 6.09116C47.6738 5.69025 46.825 5.48318 45.9642 5.48859Z" fill="url(#paint29_radial)"/>
<path d="M45.9642 5.48859C45.5391 5.48766 45.1158 5.54027 44.704 5.64521C45.6426 6.99072 46.4395 8.42813 47.0827 9.93487C47.3749 10.5829 47.5253 11.2849 47.5242 11.9948C47.5229 12.6522 47.391 13.3029 47.136 13.9098C46.881 14.5167 46.5082 15.0678 46.0386 15.5317C45.569 15.9956 45.0119 16.3632 44.3989 16.6135C43.7862 16.8638 43.1298 16.9919 42.467 16.9905C41.5712 16.9889 40.6919 16.7506 39.9197 16.3004L39.4006 18.2036C38.4587 21.328 37.7951 22.5358 37.7951 22.5358C37.4296 23.3828 36.9945 24.1987 36.4947 24.9752C36.1495 25.4823 35.708 25.9919 35.1033 26.1857C34.893 26.2584 34.6682 26.2802 34.4477 26.2494C34.2091 26.2207 33.9787 26.1439 33.7708 26.0238C33.3732 25.7271 33.0569 25.3366 32.8503 24.8876C32.5945 24.3893 32.3649 23.8781 32.1626 23.356C31.7158 22.2783 31.0254 19.6238 31.0254 19.6238L30.311 16.8445L29.5966 14.044L29.0882 12.2045C27.7503 7.4131 25.8987 5.05591 25.8987 5.05591C24.4433 2.99719 22.3814 1.4357 19.9959 0.585742C17.2292 -0.399076 14.326 0.155714 14.326 0.155714C9.77716 1.04232 7.3877 4.13745 6.33613 5.62662C6.81742 5.75131 7.27797 5.94442 7.70344 6.2C8.27279 6.53805 8.76489 6.99008 9.14836 7.52724C9.83335 8.49348 9.98855 9.69597 10.125 10.8454C10.4121 13.3365 10.9079 15.7995 11.6074 18.2089C13.1486 13.1388 14.9976 10.7763 14.9976 10.7763C15.2042 10.5217 15.4519 10.3028 15.7307 10.1286C15.8759 10.0403 16.0382 9.98329 16.207 9.96142C16.52 9.93158 16.8339 10.0073 17.0981 10.1764C17.1464 10.208 17.1921 10.2435 17.2345 10.2826C17.4762 10.4952 17.6837 10.7432 17.8499 11.0179C18.2349 11.7005 18.5684 12.4102 18.848 13.1415C19.426 14.7554 19.9183 16.7277 19.9183 16.7277L21.39 22.4827C22.4603 26.3954 23.3674 28.296 23.3674 28.296C25.6016 33.3714 29.0186 34.7995 29.0186 34.7995C30.6821 35.6822 32.5322 36.1624 34.4183 36.2011C36.2188 36.2497 38.0046 35.8682 39.6254 35.0889C41.4023 34.2219 42.9612 32.9711 44.1875 31.4283C45.0144 30.478 46.2318 28.1633 46.2318 28.1633C47.5743 25.5096 48.6282 22.7217 49.3758 19.8468C49.8535 18.0557 50.2366 16.2411 50.5238 14.4104C50.6682 13.5025 50.8047 12.5894 50.9144 11.6736C51.0511 10.8064 51.0239 9.92149 50.8341 9.0642C50.7943 8.91008 50.7453 8.7585 50.687 8.61028C50.257 7.53446 49.4596 6.64282 48.434 6.09116C47.6738 5.69025 46.825 5.48318 45.9642 5.48859Z" fill="url(#paint30_radial)"/>
<path d="M45.9642 5.48859C45.5391 5.48766 45.1158 5.54027 44.704 5.64521C45.6426 6.99072 46.4395 8.42813 47.0827 9.93487C47.3749 10.5829 47.5253 11.2849 47.5242 11.9948C47.5229 12.6522 47.391 13.3029 47.136 13.9098C46.881 14.5167 46.5082 15.0678 46.0386 15.5317C45.569 15.9956 45.0119 16.3632 44.3989 16.6135C43.7862 16.8638 43.1298 16.9919 42.467 16.9905C41.5712 16.9889 40.6919 16.7506 39.9197 16.3004L39.4006 18.2036C38.4587 21.328 37.7951 22.5358 37.7951 22.5358C37.4296 23.3828 36.9945 24.1987 36.4947 24.9752C36.1495 25.4823 35.708 25.9919 35.1033 26.1857C34.893 26.2584 34.6682 26.2802 34.4477 26.2494C34.2091 26.2207 33.9787 26.1439 33.7708 26.0238C33.3732 25.7271 33.0569 25.3366 32.8503 24.8876C32.5945 24.3893 32.3649 23.8781 32.1626 23.356C31.7158 22.2783 31.0254 19.6238 31.0254 19.6238L30.311 16.8445L29.5966 14.044L29.0882 12.2045C27.7503 7.4131 25.8987 5.05591 25.8987 5.05591C24.4433 2.99719 22.3814 1.4357 19.9959 0.585742C17.2292 -0.399076 14.326 0.155714 14.326 0.155714C9.77716 1.04232 7.3877 4.13745 6.33613 5.62662C6.81742 5.75131 7.27797 5.94442 7.70344 6.2C8.27279 6.53805 8.76489 6.99008 9.14836 7.52724C9.83335 8.49348 9.98855 9.69597 10.125 10.8454C10.4121 13.3365 10.9079 15.7995 11.6074 18.2089C13.1486 13.1388 14.9976 10.7763 14.9976 10.7763C15.2042 10.5217 15.4519 10.3028 15.7307 10.1286C15.8759 10.0403 16.0382 9.98329 16.207 9.96142C16.52 9.93158 16.8339 10.0073 17.0981 10.1764C17.1464 10.208 17.1921 10.2435 17.2345 10.2826C17.4762 10.4952 17.6837 10.7432 17.8499 11.0179C18.2349 11.7005 18.5684 12.4102 18.848 13.1415C19.426 14.7554 19.9183 16.7277 19.9183 16.7277L21.39 22.4827C22.4603 26.3954 23.3674 28.296 23.3674 28.296C25.6016 33.3714 29.0186 34.7995 29.0186 34.7995C30.6821 35.6822 32.5322 36.1624 34.4183 36.2011C36.2188 36.2497 38.0046 35.8682 39.6254 35.0889C41.4023 34.2219 42.9612 32.9711 44.1875 31.4283C45.0144 30.478 46.2318 28.1633 46.2318 28.1633C47.5743 25.5096 48.6282 22.7217 49.3758 19.8468C49.8535 18.0557 50.2366 16.2411 50.5238 14.4104C50.6682 13.5025 50.8047 12.5894 50.9144 11.6736C51.0511 10.8064 51.0239 9.92149 50.8341 9.0642C50.7943 8.91008 50.7453 8.7585 50.687 8.61028C50.257 7.53446 49.4596 6.64282 48.434 6.09116C47.6738 5.69025 46.825 5.48318 45.9642 5.48859Z" fill="url(#paint31_radial)"/>
<path d="M45.9642 5.48859C45.5391 5.48766 45.1158 5.54027 44.704 5.64521C45.6426 6.99072 46.4395 8.42813 47.0827 9.93487C47.3749 10.5829 47.5253 11.2849 47.5242 11.9948C47.5229 12.6522 47.391 13.3029 47.136 13.9098C46.881 14.5167 46.5082 15.0678 46.0386 15.5317C45.569 15.9956 45.0119 16.3632 44.3989 16.6135C43.7862 16.8638 43.1298 16.9919 42.467 16.9905C41.5712 16.9889 40.6919 16.7506 39.9197 16.3004L39.4006 18.2036C38.4587 21.328 37.7951 22.5358 37.7951 22.5358C37.4296 23.3828 36.9945 24.1987 36.4947 24.9752C36.1495 25.4823 35.708 25.9919 35.1033 26.1857C34.893 26.2584 34.6682 26.2802 34.4477 26.2494C34.2091 26.2207 33.9787 26.1439 33.7708 26.0238C33.3732 25.7271 33.0569 25.3366 32.8503 24.8876C32.5945 24.3893 32.3649 23.8781 32.1626 23.356C31.7158 22.2783 31.0254 19.6238 31.0254 19.6238L30.311 16.8445L29.5966 14.044L29.0882 12.2045C27.7503 7.4131 25.8987 5.05591 25.8987 5.05591C24.4433 2.99719 22.3814 1.4357 19.9959 0.585742C17.2292 -0.399076 14.326 0.155714 14.326 0.155714C9.77716 1.04232 7.3877 4.13745 6.33613 5.62662C6.81742 5.75131 7.27797 5.94442 7.70344 6.2C8.27279 6.53805 8.76489 6.99008 9.14836 7.52724C9.83335 8.49348 9.98855 9.69597 10.125 10.8454C10.4121 13.3365 10.9079 15.7995 11.6074 18.2089C13.1486 13.1388 14.9976 10.7763 14.9976 10.7763C15.2042 10.5217 15.4519 10.3028 15.7307 10.1286C15.8759 10.0403 16.0382 9.98329 16.207 9.96142C16.52 9.93158 16.8339 10.0073 17.0981 10.1764C17.1464 10.208 17.1921 10.2435 17.2345 10.2826C17.4762 10.4952 17.6837 10.7432 17.8499 11.0179C18.2349 11.7005 18.5684 12.4102 18.848 13.1415C19.426 14.7554 19.9183 16.7277 19.9183 16.7277L21.39 22.4827C22.4603 26.3954 23.3674 28.296 23.3674 28.296C25.6016 33.3714 29.0186 34.7995 29.0186 34.7995C30.6821 35.6822 32.5322 36.1624 34.4183 36.2011C36.2188 36.2497 38.0046 35.8682 39.6254 35.0889C41.4023 34.2219 42.9612 32.9711 44.1875 31.4283C45.0144 30.478 46.2318 28.1633 46.2318 28.1633C47.5743 25.5096 48.6282 22.7217 49.3758 19.8468C49.8535 18.0557 50.2366 16.2411 50.5238 14.4104C50.6682 13.5025 50.8047 12.5894 50.9144 11.6736C51.0511 10.8064 51.0239 9.92149 50.8341 9.0642C50.7943 8.91008 50.7453 8.7585 50.687 8.61028C50.257 7.53446 49.4596 6.64282 48.434 6.09116C47.6738 5.69025 46.825 5.48318 45.9642 5.48859Z" fill="url(#paint32_radial)"/>
<path d="M45.9642 5.48859C45.5391 5.48766 45.1158 5.54027 44.704 5.64521C45.6426 6.99072 46.4395 8.42813 47.0827 9.93487C47.3749 10.5829 47.5253 11.2849 47.5242 11.9948C47.5229 12.6522 47.391 13.3029 47.136 13.9098C46.881 14.5167 46.5082 15.0678 46.0386 15.5317C45.569 15.9956 45.0119 16.3632 44.3989 16.6135C43.7862 16.8638 43.1298 16.9919 42.467 16.9905C41.5712 16.9889 40.6919 16.7506 39.9197 16.3004L39.4006 18.2036C38.4587 21.328 37.7951 22.5358 37.7951 22.5358C37.4296 23.3828 36.9945 24.1987 36.4947 24.9752C36.1495 25.4823 35.708 25.9919 35.1033 26.1857C34.893 26.2584 34.6682 26.2802 34.4477 26.2494C34.2091 26.2207 33.9787 26.1439 33.7708 26.0238C33.3732 25.7271 33.0569 25.3366 32.8503 24.8876C32.5945 24.3893 32.3649 23.8781 32.1626 23.356C31.7158 22.2783 31.0254 19.6238 31.0254 19.6238L30.311 16.8445L29.5966 14.044L29.0882 12.2045C27.7503 7.4131 25.8987 5.05591 25.8987 5.05591C24.4433 2.99719 22.3814 1.4357 19.9959 0.585742C17.2292 -0.399076 14.326 0.155714 14.326 0.155714C9.77716 1.04232 7.3877 4.13745 6.33613 5.62662C6.81742 5.75131 7.27797 5.94442 7.70344 6.2C8.27279 6.53805 8.76489 6.99008 9.14836 7.52724C9.83335 8.49348 9.98855 9.69597 10.125 10.8454C10.4121 13.3365 10.9079 15.7995 11.6074 18.2089C13.1486 13.1388 14.9976 10.7763 14.9976 10.7763C15.2042 10.5217 15.4519 10.3028 15.7307 10.1286C15.8759 10.0403 16.0382 9.98329 16.207 9.96142C16.52 9.93158 16.8339 10.0073 17.0981 10.1764C17.1464 10.208 17.1921 10.2435 17.2345 10.2826C17.4762 10.4952 17.6837 10.7432 17.8499 11.0179C18.2349 11.7005 18.5684 12.4102 18.848 13.1415C19.426 14.7554 19.9183 16.7277 19.9183 16.7277L21.39 22.4827C22.4603 26.3954 23.3674 28.296 23.3674 28.296C25.6016 33.3714 29.0186 34.7995 29.0186 34.7995C30.6821 35.6822 32.5322 36.1624 34.4183 36.2011C36.2188 36.2497 38.0046 35.8682 39.6254 35.0889C41.4023 34.2219 42.9612 32.9711 44.1875 31.4283C45.0144 30.478 46.2318 28.1633 46.2318 28.1633C47.5743 25.5096 48.6282 22.7217 49.3758 19.8468C49.8535 18.0557 50.2366 16.2411 50.5238 14.4104C50.6682 13.5025 50.8047 12.5894 50.9144 11.6736C51.0511 10.8064 51.0239 9.92149 50.8341 9.0642C50.7943 8.91008 50.7453 8.7585 50.687 8.61028C50.257 7.53446 49.4596 6.64282 48.434 6.09116C47.6738 5.69025 46.825 5.48318 45.9642 5.48859Z" fill="url(#paint33_radial)"/>
<path d="M45.9642 5.48859C45.5391 5.48766 45.1158 5.54027 44.704 5.64521C45.6426 6.99072 46.4395 8.42813 47.0827 9.93487C47.3749 10.5829 47.5253 11.2849 47.5242 11.9948C47.5229 12.6522 47.391 13.3029 47.136 13.9098C46.881 14.5167 46.5082 15.0678 46.0386 15.5317C45.569 15.9956 45.0119 16.3632 44.3989 16.6135C43.7862 16.8638 43.1298 16.9919 42.467 16.9905C41.5712 16.9889 40.6919 16.7506 39.9197 16.3004L39.4006 18.2036C38.4587 21.328 37.7951 22.5358 37.7951 22.5358C37.4296 23.3828 36.9945 24.1987 36.4947 24.9752C36.1495 25.4823 35.708 25.9919 35.1033 26.1857C34.893 26.2584 34.6682 26.2802 34.4477 26.2494C34.2091 26.2207 33.9787 26.1439 33.7708 26.0238C33.3732 25.7271 33.0569 25.3366 32.8503 24.8876C32.5945 24.3893 32.3649 23.8781 32.1626 23.356C31.7158 22.2783 31.0254 19.6238 31.0254 19.6238L30.311 16.8445L29.5966 14.044L29.0882 12.2045C27.7503 7.4131 25.8987 5.05591 25.8987 5.05591C24.4433 2.99719 22.3814 1.4357 19.9959 0.585742C17.2292 -0.399076 14.326 0.155714 14.326 0.155714C9.77716 1.04232 7.3877 4.13745 6.33613 5.62662C6.81742 5.75131 7.27797 5.94442 7.70344 6.2C8.27279 6.53805 8.76489 6.99008 9.14836 7.52724C9.83335 8.49348 9.98855 9.69597 10.125 10.8454C10.4121 13.3365 10.9079 15.7995 11.6074 18.2089C13.1486 13.1388 14.9976 10.7763 14.9976 10.7763C15.2042 10.5217 15.4519 10.3028 15.7307 10.1286C15.8759 10.0403 16.0382 9.98329 16.207 9.96142C16.52 9.93158 16.8339 10.0073 17.0981 10.1764C17.1464 10.208 17.1921 10.2435 17.2345 10.2826C17.4762 10.4952 17.6837 10.7432 17.8499 11.0179C18.2349 11.7005 18.5684 12.4102 18.848 13.1415C19.426 14.7554 19.9183 16.7277 19.9183 16.7277L21.39 22.4827C22.4603 26.3954 23.3674 28.296 23.3674 28.296C25.6016 33.3714 29.0186 34.7995 29.0186 34.7995C30.6821 35.6822 32.5322 36.1624 34.4183 36.2011C36.2188 36.2497 38.0046 35.8682 39.6254 35.0889C41.4023 34.2219 42.9612 32.9711 44.1875 31.4283C45.0144 30.478 46.2318 28.1633 46.2318 28.1633C47.5743 25.5096 48.6282 22.7217 49.3758 19.8468C49.8535 18.0557 50.2366 16.2411 50.5238 14.4104C50.6682 13.5025 50.8047 12.5894 50.9144 11.6736C51.0511 10.8064 51.0239 9.92149 50.8341 9.0642C50.7943 8.91008 50.7453 8.7585 50.687 8.61028C50.257 7.53446 49.4596 6.64282 48.434 6.09116C47.6738 5.69025 46.825 5.48318 45.9642 5.48859Z" fill="url(#paint34_linear)"/>
<defs>
<linearGradient id="paint0_linear" x1="2.2851" y1="24.455" x2="41.8612" y2="8.32979" gradientUnits="userSpaceOnUse">
<stop offset="0.13" stop-color="#1CBBF3"/>
<stop offset="0.34" stop-color="#1F99A5"/>
<stop offset="0.45" stop-color="#209CA6"/>
<stop offset="0.51" stop-color="#24A4AA"/>
<stop offset="0.57" stop-color="#2BB3B0"/>
<stop offset="0.6" stop-color="#30BDB4"/>
<stop offset="0.79" stop-color="#38BA90"/>
<stop offset="1" stop-color="#60F05A"/>
</linearGradient>
<radialGradient id="paint1_radial" cx="0" cy="0" r="1" gradientUnits="userSpaceOnUse" gradientTransform="translate(28.69 15.1115) rotate(74.2006) scale(18.8182 14.3995)">
<stop stop-color="#227B60"/>
<stop offset="0.14" stop-color="#227B60" stop-opacity="0.81"/>
<stop offset="0.58" stop-color="#227B60" stop-opacity="0.23"/>
<stop offset="0.78" stop-color="#227B60" stop-opacity="0"/>
</radialGradient>
<radialGradient id="paint2_radial" cx="0" cy="0" r="1" gradientUnits="userSpaceOnUse" gradientTransform="translate(31.4396 13.8046) rotate(91.155) scale(12.7176 9.74144)">
<stop stop-color="#227B60"/>
<stop offset="0.25" stop-color="#227B60" stop-opacity="0.7"/>
<stop offset="0.71" stop-color="#227B60" stop-opacity="0.2"/>
<stop offset="0.92" stop-color="#227B60" stop-opacity="0"/>
</radialGradient>
<radialGradient id="paint3_radial" cx="0" cy="0" r="1" gradientUnits="userSpaceOnUse" gradientTransform="translate(30.9452 14.2711) rotate(88.5888) scale(11.855 8.48444)">
<stop stop-color="#227B60"/>
<stop offset="0.07" stop-color="#227B60" stop-opacity="0.9"/>
<stop offset="0.34" stop-color="#227B60" stop-opacity="0.51"/>
<stop offset="0.59" stop-color="#227B60" stop-opacity="0.23"/>
<stop offset="0.79" stop-color="#227B60" stop-opacity="0.06"/>
<stop offset="0.92" stop-color="#227B60" stop-opacity="0"/>
</radialGradient>
<radialGradient id="paint4_radial" cx="0" cy="0" r="1" gradientUnits="userSpaceOnUse" gradientTransform="translate(31.1475 13.7308) rotate(88.5888) scale(9.57216 6.85062)">
<stop stop-color="#227B60"/>
<stop offset="0.36" stop-color="#227B60" stop-opacity="0.63"/>
<stop offset="0.92" stop-color="#227B60" stop-opacity="0"/>
</radialGradient>
<radialGradient id="paint5_radial" cx="0" cy="0" r="1" gradientUnits="userSpaceOnUse" gradientTransform="translate(31.5684 14.2689) rotate(88.5888) scale(7.63437 4.9251)">
<stop stop-color="#20735A"/>
<stop offset="0.15" stop-color="#20745A" stop-opacity="0.93"/>
<stop offset="0.38" stop-color="#21755C" stop-opacity="0.74"/>
<stop offset="0.67" stop-color="#21785D" stop-opacity="0.43"/>
<stop offset="1" stop-color="#227B60" stop-opacity="0"/>
</radialGradient>
<radialGradient id="paint6_radial" cx="0" cy="0" r="1" gradientUnits="userSpaceOnUse" gradientTransform="translate(32.5993 15.4866) rotate(23.6316) scale(12.3675 9.22566)">
<stop stop-color="#227A61"/>
<stop offset="0.36" stop-color="#227A61" stop-opacity="0.56"/>
<stop offset="0.72" stop-color="#227A61" stop-opacity="0.16"/>
<stop offset="0.9" stop-color="#227A61" stop-opacity="0"/>
</radialGradient>
<radialGradient id="paint7_radial" cx="0" cy="0" r="1" gradientUnits="userSpaceOnUse" gradientTransform="translate(29.3172 -3.70839) rotate(35.0571) scale(16.4711 15.02)">
<stop stop-color="#3CD9C3"/>
<stop offset="0.07" stop-color="#3BD7C1" stop-opacity="0.9"/>
<stop offset="0.41" stop-color="#38CEB9" stop-opacity="0.42"/>
<stop offset="0.65" stop-color="#36C8B4" stop-opacity="0.12"/>
<stop offset="0.76" stop-color="#35C6B2" stop-opacity="0"/>
</radialGradient>
<radialGradient id="paint8_radial" cx="0" cy="0" r="1" gradientUnits="userSpaceOnUse" gradientTransform="translate(14345.2 -7438.91) rotate(35.0571) scale(2925.45 2047.99)">
<stop stop-color="#3CD9C3"/>
<stop offset="0.07" stop-color="#3BD7C1" stop-opacity="0.9"/>
<stop offset="0.41" stop-color="#38CEB9" stop-opacity="0.42"/>
<stop offset="0.65" stop-color="#36C8B4" stop-opacity="0.12"/>
<stop offset="0.76" stop-color="#35C6B2" stop-opacity="0"/>
</radialGradient>
<radialGradient id="paint9_radial" cx="0" cy="0" r="1" gradientUnits="userSpaceOnUse" gradientTransform="translate(35.8951 18.3147) rotate(101.058) scale(14.4538 17.9936)">
<stop stop-color="#237F66" stop-opacity="0.8"/>
<stop offset="0.06" stop-color="#2C8C70" stop-opacity="0.65"/>
<stop offset="0.21" stop-color="#3DA785" stop-opacity="0.37"/>
<stop offset="0.35" stop-color="#4ABA93" stop-opacity="0.17"/>
<stop offset="0.47" stop-color="#51C59C" stop-opacity="0.04"/>
<stop offset="0.56" stop-color="#54C99F" stop-opacity="0"/>
</radialGradient>
<radialGradient id="paint10_radial" cx="0" cy="0" r="1" gradientUnits="userSpaceOnUse" gradientTransform="translate(26.8737 19.3429) rotate(-50.5959) scale(18.942 20.4897)">
<stop stop-color="#167C8A"/>
<stop offset="0.04" stop-color="#167C8A" stop-opacity="0.93"/>
<stop offset="0.33" stop-color="#177F8D" stop-opacity="0.43"/>
<stop offset="0.54" stop-color="#17818F" stop-opacity="0.12"/>
<stop offset="0.65" stop-color="#178290" stop-opacity="0"/>
</radialGradient>
<radialGradient id="paint11_radial" cx="0" cy="0" r="1" gradientUnits="userSpaceOnUse" gradientTransform="translate(25.7319 21.2503) rotate(-31.4561) scale(18.5266 14.5833)">
<stop offset="0.05" stop-color="#177D87"/>
<stop offset="0.11" stop-color="#177E89" stop-opacity="0.8"/>
<stop offset="0.21" stop-color="#177F8B" stop-opacity="0.52"/>
<stop offset="0.32" stop-color="#17818D" stop-opacity="0.29"/>
<stop offset="0.42" stop-color="#17818F" stop-opacity="0.13"/>
<stop offset="0.51" stop-color="#178290" stop-opacity="0.03"/>
<stop offset="0.6" stop-color="#178290" stop-opacity="0"/>
</radialGradient>
<radialGradient id="paint12_radial" cx="0" cy="0" r="1" gradientUnits="userSpaceOnUse" gradientTransform="translate(21.1534 21.5679) rotate(-130.765) scale(11.0115 8.68113)">
<stop offset="0.26" stop-color="#177F8A"/>
<stop offset="0.27" stop-color="#177F8A" stop-opacity="0.98"/>
<stop offset="0.38" stop-color="#17808C" stop-opacity="0.68"/>
<stop offset="0.5" stop-color="#17818D" stop-opacity="0.43"/>
<stop offset="0.62" stop-color="#17818F" stop-opacity="0.24"/>
<stop offset="0.74" stop-color="#17828F" stop-opacity="0.11"/>
<stop offset="0.86" stop-color="#178290" stop-opacity="0.03"/>
<stop offset="1" stop-color="#178290" stop-opacity="0"/>
</radialGradient>
<radialGradient id="paint13_radial" cx="0" cy="0" r="1" gradientUnits="userSpaceOnUse" gradientTransform="translate(19.1481 24.2655) rotate(-173.164) scale(10.3754 10.2953)">
<stop stop-color="#13656E"/>
<stop offset="0.11" stop-color="#13646E" stop-opacity="0.73"/>
<stop offset="0.27" stop-color="#12646E" stop-opacity="0.41"/>
<stop offset="0.42" stop-color="#12636E" stop-opacity="0.18"/>
<stop offset="0.55" stop-color="#12636E" stop-opacity="0.05"/>
<stop offset="0.66" stop-color="#12636E" stop-opacity="0"/>
</radialGradient>
<radialGradient id="paint14_radial" cx="0" cy="0" r="1" gradientUnits="userSpaceOnUse" gradientTransform="translate(18.8757 25.7985) rotate(-119.516) scale(7.21287 6.08388)">
<stop offset="0.13" stop-color="#146A73"/>
<stop offset="0.24" stop-color="#156F79" stop-opacity="0.79"/>
<stop offset="0.45" stop-color="#167783" stop-opacity="0.45"/>
<stop offset="0.65" stop-color="#167D8A" stop-opacity="0.2"/>
<stop offset="0.82" stop-color="#17818E" stop-opacity="0.05"/>
<stop offset="0.95" stop-color="#178290" stop-opacity="0"/>
</radialGradient>
<radialGradient id="paint15_radial" cx="0" cy="0" r="1" gradientUnits="userSpaceOnUse" gradientTransform="translate(18.3104 22.798) rotate(-55.7802) scale(6.78912 5.39443)">
<stop stop-color="#198E9C"/>
<stop offset="0.1" stop-color="#198E9C" stop-opacity="0.87"/>
<stop offset="0.41" stop-color="#198E9C" stop-opacity="0.5"/>
<stop offset="0.67" stop-color="#198E9C" stop-opacity="0.23"/>
<stop offset="0.88" stop-color="#198E9C" stop-opacity="0.06"/>
<stop offset="1" stop-color="#198E9C" stop-opacity="0"/>
</radialGradient>
<linearGradient id="paint16_linear" x1="4.84047" y1="-0.823746" x2="22.211" y2="15.3821" gradientUnits="userSpaceOnUse">
<stop offset="0.13" stop-color="#2BF9FF"/>
<stop offset="0.27" stop-color="#29F9FF" stop-opacity="0.64"/>
<stop offset="0.4" stop-color="#27FAFF" stop-opacity="0.3"/>
<stop offset="0.49" stop-color="#26FAFF" stop-opacity="0.08"/>
<stop offset="0.54" stop-color="#26FAFF" stop-opacity="0"/>
</linearGradient>
<linearGradient id="paint17_linear" x1="-5.07056" y1="25.3974" x2="15.3478" y2="19.5622" gradientUnits="userSpaceOnUse">
<stop stop-color="#26FAFF"/>
<stop offset="0.06" stop-color="#26FAFF" stop-opacity="0.88"/>
<stop offset="0.24" stop-color="#26FAFF" stop-opacity="0.51"/>
<stop offset="0.39" stop-color="#26FAFF" stop-opacity="0.23"/>
<stop offset="0.5" stop-color="#26FAFF" stop-opacity="0.06"/>
<stop offset="0.55" stop-color="#26FAFF" stop-opacity="0"/>
</linearGradient>
<linearGradient id="paint18_linear" x1="0.345174" y1="24.6913" x2="23.3445" y2="16.4285" gradientUnits="userSpaceOnUse">
<stop stop-color="#21DEFF"/>
<stop offset="0.04" stop-color="#21DEFF" stop-opacity="0.88"/>
<stop offset="0.17" stop-color="#21DEFF" stop-opacity="0.51"/>
<stop offset="0.27" stop-color="#21DEFF" stop-opacity="0.23"/>
<stop offset="0.34" stop-color="#21DEFF" stop-opacity="0.06"/>
<stop offset="0.38" stop-color="#21DEFF" stop-opacity="0"/>
</linearGradient>
<linearGradient id="paint19_linear" x1="22.2383" y1="12.9" x2="34.9758" y2="33.8416" gradientUnits="userSpaceOnUse">
<stop offset="0.62" stop-color="#21DEFF" stop-opacity="0"/>
<stop offset="0.66" stop-color="#21DEFF" stop-opacity="0.06"/>
<stop offset="0.73" stop-color="#21DEFF" stop-opacity="0.23"/>
<stop offset="0.83" stop-color="#21DEFF" stop-opacity="0.51"/>
<stop offset="0.96" stop-color="#21DEFF" stop-opacity="0.88"/>
<stop offset="1" stop-color="#21DEFF"/>
</linearGradient>
<linearGradient id="paint20_linear" x1="36.5803" y1="20.6909" x2="34.5829" y2="10.8763" gradientUnits="userSpaceOnUse">
<stop stop-color="#44B044"/>
<stop offset="0.11" stop-color="#44B044" stop-opacity="0.8"/>
<stop offset="0.27" stop-color="#44B044" stop-opacity="0.52"/>
<stop offset="0.43" stop-color="#44B044" stop-opacity="0.29"/>
<stop offset="0.58" stop-color="#44B044" stop-opacity="0.13"/>
<stop offset="0.7" stop-color="#44B044" stop-opacity="0.03"/>
<stop offset="0.8" stop-color="#44B044" stop-opacity="0"/>
</linearGradient>
<linearGradient id="paint21_linear" x1="8.30014" y1="10.5242" x2="50.8922" y2="24.7374" gradientUnits="userSpaceOnUse">
<stop stop-color="#3066FB"/>
<stop offset="0.38" stop-color="#2F64F7"/>
<stop offset="0.74" stop-color="#2857D9"/>
<stop offset="1" stop-color="#3C7EFF"/>
</linearGradient>
<radialGradient id="paint22_radial" cx="0" cy="0" r="1" gradientUnits="userSpaceOnUse" gradientTransform="translate(38.414 16.9186) rotate(98.7586) scale(22.6364 15.0542)">
<stop stop-color="#1A3D9C"/>
<stop offset="0.4" stop-color="#1A3D9C" stop-opacity="0.42"/>
<stop offset="0.7" stop-color="#1A3D9C" stop-opacity="0"/>
</radialGradient>
<radialGradient id="paint23_radial" cx="0" cy="0" r="1" gradientUnits="userSpaceOnUse" gradientTransform="translate(6711.61 11013) rotate(98.7586) scale(2784.44 1513.1)">
<stop stop-color="#1A3D9C"/>
<stop offset="0.4" stop-color="#1A3D9C" stop-opacity="0.42"/>
<stop offset="0.7" stop-color="#1A3D9C" stop-opacity="0"/>
</radialGradient>
<radialGradient id="paint24_radial" cx="0" cy="0" r="1" gradientUnits="userSpaceOnUse" gradientTransform="translate(5070.19 10532) rotate(98.6836) scale(3316.09 1380.69)">
<stop stop-color="#1A3D9C"/>
<stop offset="0.4" stop-color="#1A3D9C" stop-opacity="0.42"/>
<stop offset="0.7" stop-color="#1A3D9C" stop-opacity="0"/>
</radialGradient>
<radialGradient id="paint25_radial" cx="0" cy="0" r="1" gradientUnits="userSpaceOnUse" gradientTransform="translate(34.7841 15.3943) rotate(83.034) scale(19.7847 13.9119)">
<stop stop-color="#1A3D9C"/>
<stop offset="0.16" stop-color="#1A3D9C" stop-opacity="0.69"/>
<stop offset="0.33" stop-color="#1A3D9C" stop-opacity="0.4"/>
<stop offset="0.49" stop-color="#1A3D9C" stop-opacity="0.18"/>
<stop offset="0.61" stop-color="#1A3D9C" stop-opacity="0.05"/>
<stop offset="0.7" stop-color="#1A3D9C" stop-opacity="0"/>
</radialGradient>
<radialGradient id="paint26_radial" cx="0" cy="0" r="1" gradientUnits="userSpaceOnUse" gradientTransform="translate(39.1777 19.0988) rotate(74.5228) scale(19.0222 13.0241)">
<stop stop-color="#18388F"/>
<stop offset="0.37" stop-color="#193B96" stop-opacity="0.45"/>
<stop offset="0.7" stop-color="#1A3D9C" stop-opacity="0"/>
</radialGradient>
<radialGradient id="paint27_radial" cx="0" cy="0" r="1" gradientUnits="userSpaceOnUse" gradientTransform="translate(37.2688 24.166) rotate(74.5228) scale(8.84446 8.46001)">
<stop stop-color="#18388F"/>
<stop offset="0.09" stop-color="#183992" stop-opacity="0.78"/>
<stop offset="0.22" stop-color="#193B96" stop-opacity="0.5"/>
<stop offset="0.35" stop-color="#193C98" stop-opacity="0.28"/>
<stop offset="0.47" stop-color="#1A3C9A" stop-opacity="0.13"/>
<stop offset="0.59" stop-color="#1A3D9C" stop-opacity="0.03"/>
<stop offset="0.7" stop-color="#1A3D9C" stop-opacity="0"/>
</radialGradient>
<radialGradient id="paint28_radial" cx="0" cy="0" r="1" gradientUnits="userSpaceOnUse" gradientTransform="translate(37.4826 25.6739) rotate(74.5228) scale(8.84446 8.46001)">
<stop stop-color="#1A3D9C" stop-opacity="0.8"/>
<stop offset="0.01" stop-color="#1A3D9C" stop-opacity="0.78"/>
<stop offset="0.24" stop-color="#1A3D9C" stop-opacity="0.45"/>
<stop offset="0.44" stop-color="#1A3D9C" stop-opacity="0.2"/>
<stop offset="0.6" stop-color="#1A3D9C" stop-opacity="0.05"/>
<stop offset="0.7" stop-color="#1A3D9C" stop-opacity="0"/>
</radialGradient>
<radialGradient id="paint29_radial" cx="0" cy="0" r="1" gradientUnits="userSpaceOnUse" gradientTransform="translate(14.4249 20.4671) rotate(66.8625) scale(21.1212 14.0937)">
<stop stop-color="#1A3D9C"/>
<stop offset="0.4" stop-color="#1A3D9C" stop-opacity="0.56"/>
<stop offset="0.48" stop-color="#1A3D9C" stop-opacity="0.43"/>
<stop offset="0.69" stop-color="#1A3D9C" stop-opacity="0.12"/>
<stop offset="0.79" stop-color="#1A3D9C" stop-opacity="0"/>
</radialGradient>
<radialGradient id="paint30_radial" cx="0" cy="0" r="1" gradientUnits="userSpaceOnUse" gradientTransform="translate(13.064 15.5239) rotate(75.9958) scale(15.6544 10.408)">
<stop stop-color="#1A3D9C"/>
<stop offset="0.06" stop-color="#1A3D9C" stop-opacity="0.88"/>
<stop offset="0.21" stop-color="#1A3D9C" stop-opacity="0.61"/>
<stop offset="0.36" stop-color="#1A3D9C" stop-opacity="0.39"/>
<stop offset="0.51" stop-color="#1A3D9C" stop-opacity="0.22"/>
<stop offset="0.67" stop-color="#1A3D9C" stop-opacity="0.1"/>
<stop offset="0.83" stop-color="#1A3D9C" stop-opacity="0.02"/>
<stop offset="1" stop-color="#1A3D9C" stop-opacity="0"/>
</radialGradient>
<radialGradient id="paint31_radial" cx="0" cy="0" r="1" gradientUnits="userSpaceOnUse" gradientTransform="translate(13.064 15.5239) rotate(75.9958) scale(15.6544 10.408)">
<stop stop-color="#1B3E9E"/>
<stop offset="0.06" stop-color="#1B3E9E" stop-opacity="0.87"/>
<stop offset="0.21" stop-color="#1B3E9D" stop-opacity="0.61"/>
<stop offset="0.36" stop-color="#1A3D9D" stop-opacity="0.39"/>
<stop offset="0.52" stop-color="#1A3D9C" stop-opacity="0.22"/>
<stop offset="0.67" stop-color="#1A3D9C" stop-opacity="0.1"/>
<stop offset="0.83" stop-color="#1A3D9C" stop-opacity="0.02"/>
<stop offset="1" stop-color="#1A3D9C" stop-opacity="0"/>
</radialGradient>
<radialGradient id="paint32_radial" cx="0" cy="0" r="1" gradientUnits="userSpaceOnUse" gradientTransform="translate(13.6621 13.9983) rotate(75.9958) scale(11.9763 7.9626)">
<stop stop-color="#183991"/>
<stop offset="0.03" stop-color="#183992" stop-opacity="0.95"/>
<stop offset="0.18" stop-color="#193A95" stop-opacity="0.66"/>
<stop offset="0.34" stop-color="#193B97" stop-opacity="0.42"/>
<stop offset="0.5" stop-color="#1A3C99" stop-opacity="0.24"/>
<stop offset="0.66" stop-color="#1A3D9B" stop-opacity="0.1"/>
<stop offset="0.82" stop-color="#1A3D9C" stop-opacity="0.03"/>
<stop offset="1" stop-color="#1A3D9C" stop-opacity="0"/>
</radialGradient>
<radialGradient id="paint33_radial" cx="0" cy="0" r="1" gradientUnits="userSpaceOnUse" gradientTransform="translate(15.9218 15.5783) rotate(87.1147) scale(9.45935 8.39344)">
<stop offset="0.04" stop-color="#2453D6" stop-opacity="0.6"/>
<stop offset="0.2" stop-color="#2453D6" stop-opacity="0.49"/>
<stop offset="0.52" stop-color="#2453D6" stop-opacity="0.2"/>
<stop offset="0.73" stop-color="#2453D6" stop-opacity="0"/>
</radialGradient>
<linearGradient id="paint34_linear" x1="36.0184" y1="-6.7566" x2="25.39" y2="19.7252" gradientUnits="userSpaceOnUse">
<stop stop-color="#3774FF"/>
<stop offset="0.05" stop-color="#3774FF" stop-opacity="0.91"/>
<stop offset="0.16" stop-color="#3774FF" stop-opacity="0.66"/>
<stop offset="0.32" stop-color="#3774FF" stop-opacity="0.28"/>
<stop offset="0.43" stop-color="#3774FF" stop-opacity="0"/>
</linearGradient>
</defs>
</svg>
